<?xml version="1.0" encoding="utf-8"?>
<!-- Generator: Adobe Illustrator 21.0.0, SVG Export Plug-In . SVG Version: 6.00 Build 0)  -->
<svg version="1.1" id="Layer_1" xmlns="http://www.w3.org/2000/svg" xmlns:xlink="http://www.w3.org/1999/xlink" x="0px" y="0px"
	 viewBox="0 0 1400 980" style="enable-background:new 0 0 1400 980;" xml:space="preserve">
<style type="text/css">
	.st0{fill-rule:evenodd;clip-rule:evenodd;fill:#E6E7E8;}
	.st1{fill-rule:evenodd;clip-rule:evenodd;fill:#FCC375;}
	.st2{fill-rule:evenodd;clip-rule:evenodd;fill:#F48120;}
	.st3{fill-rule:evenodd;clip-rule:evenodd;fill:#231F20;}
	.st4{fill-rule:evenodd;clip-rule:evenodd;fill:#FFFFFF;}
	.st5{fill-rule:evenodd;clip-rule:evenodd;fill:#6C8BC6;}
	.st6{fill-rule:evenodd;clip-rule:evenodd;fill:#49290F;}
	.st7{fill-rule:evenodd;clip-rule:evenodd;fill:#FFF100;}
	.st8{fill-rule:evenodd;clip-rule:evenodd;fill:#3C210E;}
	.st9{fill-rule:evenodd;clip-rule:evenodd;fill:#F7AAAC;}
	.st10{fill-rule:evenodd;clip-rule:evenodd;fill:#EFEDED;}
	.st11{fill-rule:evenodd;clip-rule:evenodd;fill:#C24437;}
	.st12{fill-rule:evenodd;clip-rule:evenodd;fill:#1E2027;}
	.st13{fill-rule:evenodd;clip-rule:evenodd;fill:#5E3D20;}
	.st14{fill-rule:evenodd;clip-rule:evenodd;fill:#4E4F51;}
	.st15{fill-rule:evenodd;clip-rule:evenodd;fill:#985E2D;}
	.st16{fill-rule:evenodd;clip-rule:evenodd;fill:#A86742;}
	.st17{fill-rule:evenodd;clip-rule:evenodd;fill:#200E1B;}
	.st18{fill:#FCC375;}
	.st19{fill-rule:evenodd;clip-rule:evenodd;fill:#D81B57;}
	.st20{fill-rule:evenodd;clip-rule:evenodd;fill:#C44C27;}
	.st21{fill-rule:evenodd;clip-rule:evenodd;fill:#8BCCCD;}
</style>
<g>
	<g>
		<path class="st0" d="M174.3,147.3c7.8,2.8,13.2,10.3,13.2,18.7c0,2.3,0.2,5.5,0.5,9c0.3,3.7,0.7,7.7,1.1,11.5
			c0.2,1.6,0.4,2.8,0.5,3.6c0.1,0.4,0.1,0.6,0.2,0.8c0.3,0.8,0.5,1.6,0.6,2.4c0.3,0.8,0.8,1.5,1.4,2.1c1.6,1.8,4.2,3.5,7.1,5.5
			c2.2,1.5,4.7,2.9,7.4,4.3c2.6,1.3,5.4,2.5,8.1,3.5c4.8,1.6,8.5,4.8,10.9,8.9c2.2-3.4,5.4-6.2,9.5-7.9c0.3-0.1,0.7-0.3,1-0.4l0,0
			c4-1.4,8.1-3.4,11.9-5.6c4.8-2.9,9.1-6.1,12.5-9.1c0,0,0-0.1,0.1-0.2c-1-2.8-1.3-5.8-1-8.7l0,0c0.5-4.5,0.8-8.6,1-12.8
			c0.2-3.2,0.4-6.5,0.5-7.7c0.6-7.6,5.3-13.8,11.8-16.7c-3.4-4.2-5.1-9.7-4.4-15.3c0.5-4.2,0.7-8.6,0.8-12.6c0-4.5-0.1-8.9-0.5-12.5
			c-1.3-12.2-5.3-20-11.8-24.6c-7.9-5.6-20.4-8.4-36.7-9.8c-9.3-0.8-18.2-0.1-25.5,2.8c-5.3,2.1-9.9,5.5-12.9,10.4l0.1,0
			c-3.6,5.8-5.4,12.9-6.2,20.5c-0.9,8.7-0.3,18.5,1,28.4C176.8,139.9,176,143.9,174.3,147.3L174.3,147.3z M224.9,238.5
			c-1.7,3.3-3.9,6.2-6.4,8.7c-3.8,3.7-8.5,6.7-13.5,8.3c-2.4,0.8-4.8,1.1-7.2,0.9c-2.1,1-4.2,2.1-4.9,2.4c-2.2,1.2-4.3,2.4-5.9,3.6
			c-1.1,0.8-2,1.8-2.8,2.9c-1.3,2-2.5,8.3-3.8,15.3c-0.7,3.8-0.2,1.3-0.8,4.4l-0.2,1.1c-0.3,1.7-0.7,3.6-1,5.5h92.4
			c-0.4-3-0.9-5.7-1.3-8.3c-2.3-15-3.8-15.9-10.6-19.9c-1.4-0.8-3-1.8-5.9-3.5c-2.2-1.4-3.9-2.4-5.2-3.2c-4.3-0.1-8.6-1.7-12.2-4.7
			c-2.6-2-4.8-4.5-6.8-7.1C227.3,243,226,240.7,224.9,238.5L224.9,238.5z M260.7,192c0-0.2,0.1-0.5,0.2-0.8
			C260.7,191.7,260.6,192.2,260.7,192L260.7,192z M299.8,198.9C299.5,200.2,299.7,199.6,299.8,198.9L299.8,198.9z"/>
		<path class="st1" d="M162.9,135.4c-4.6,0.5-6.3,1.9-7.9,5.6c-1.4,3.4-1.6,7.9-0.9,11.7c1.7,8.7,4.8,12.1,13.5,13.2
			c0.1,7.3,0.8,15.8,1.7,22.9c1.2,10,2,11.5,8.4,16.2c5.3,3.9,30.3,17.2,31,18.7c0.1,6.8-6.5,13.3-12.9,13.4
			c6.9,5,16.5,22.8,26.7,23c9.2,0.3,24-17.2,28.7-22.1c-5-0.7-10.2-9.6-10.4-14.9c3.3-3.5,22.9-13.1,30-18.3
			c5.7-4.1,6.9-6.8,8.1-15.9c0.9-7.5,1.2-15,1.7-22.5l1-0.5c0.7-0.3,0.7-0.3,1.5-0.5c6.5-1.6,9.1-4.5,10.9-12.9
			c1-4.8,0.4-12.3-3.4-15.7c-1.9-1.7-3.9-1.5-5.3-2.1C286.9,60.8,157.8,58.2,162.9,135.4z"/>
		<path class="st1" d="M156.6,138.2c-0.6,0.7-1.1,1.7-1.5,2.8c-1.4,3.4-1.6,7.9-0.9,11.7c1.7,8.7,4.8,12.1,13.5,13.2
			c0.1,7.3,0.8,15.8,1.7,22.9c0.4,3.6,0.8,6.1,1.4,8.1c2.2,9.9,8.9,15.3,17.2,20.7c5.7,3.7,12.5,7.4,20.1,9.9
			c-1.4,4.2-5.1,7.8-9.2,9.1c-0.2-0.4-0.6-0.7-1.4-1c-1.6-0.5-12.4,4.9-14.1,5.8c-5.8,3.2-11.5,6.8-15.6,12.8
			c-4.1,6.1-5.5,16.1-7.6,27.2c-1.7,8.6-4,20.9-5,30.3h138.2c-0.9-10.5-2.5-21-4.1-31.3c-4.3-27.4-7.4-26.1-25.9-37.3
			c-10.5-6.4-12.4-8.7-14.8-6.1c-2.6-1.8-5-5.3-6.4-8.8c12-4,23.4-11.7,31.2-18.6c5.4-4.7,5.8-8.8,7.7-17c-0.3-3-0.6-3.7-1.9-4.6
			c0.8-7.1,1.1-14.2,1.6-21.3l1-0.5c0.7-0.3,0.7-0.3,1.5-0.5c6.5-1.6,9.1-4.5,10.9-12.9c1-4.8,0.4-12.3-3.4-15.7
			c-0.9-0.8-1.8-1.1-2.7-1.4c1.1-9.6,1.1-21.8,0.3-29.8c-3.9-37-27.4-48.7-66.6-52.1c-22.6-2-45.4,3.8-57,22.7
			C154,93.6,153.8,116.3,156.6,138.2z"/>
		<path class="st2" d="M246.4,239.7c-4.7,8.9-14,17.5-23.2,17c-10.2-0.5-15.9-7.9-22.8-16.9c-1.9-2.7-0.9-3.5-2.9-4.1
			c-1.6-0.5-12.4,4.9-14.1,5.8c-5.8,3.2-11.5,6.8-15.6,12.8c-4.1,6.1-5.5,16.1-7.6,27.2c-1.7,8.6-4,20.9-5,30.3h138.2
			c-0.9-10.5-2.5-21-4.1-31.3c-4.3-27.4-7.4-26.1-25.9-37.3C250.3,235.2,250.5,233.5,246.4,239.7z"/>
		<path class="st3" d="M157.7,146.2c2.6-4.5,1.5-10.8,9-10.3c4.2,5,1.5,26.8,10,32.5c-0.1-15.5-4.9-52-3.8-60.2
			c1.5-10.7,6.3-14.3,14.5-18c8.9-4.1,16.5-5.5,27.4-5.4c16.7,0,46.5,0.2,51.7,13.6c6.1,15.9,3.2,42.9,2.8,60.8
			c1.9-1.7,3-5.6,3.7-8.1c1.2-4.1,1.2-6.1,1.9-10.6c0.8-5.3,5.3-7.4,10.4,1.5l1.2,1.8c2.4-9.5,2.8-27.4,1.7-37.9
			c-3.9-37-27.4-48.7-66.6-52.1c-22.6-2-45.4,3.8-57,22.7C152.7,95.7,153.9,121.9,157.7,146.2z"/>
		<path class="st4" d="M162.8,96.7c-1.5-0.9,5-33.7,44.3-37.7C206.4,58.6,169.7,72.7,162.8,96.7z"/>
		<path class="st4" d="M197.5,247.4c-0.6,0.5,4.9,13.5,21.5,11.9C218.8,259.5,202.4,256.8,197.5,247.4z"/>
	</g>
	<g>
		<path class="st0" d="M583.2,911.6c-3,2.4-6.3,4.6-9.9,6.4c-1.6,0.8-3.4,1.6-5.1,2.3h29.2c-1.2-3.3-2.9-4-7.2-5.7
			c-0.1-0.1,0.4,0.2-6.2-2.6L583.2,911.6L583.2,911.6z M534.3,920.2c-2.6-1-5-2.2-7.3-3.6c-3.1-1.8-5.8-3.9-8.4-6.1
			c-0.7,0.2-1.2,0.4-1.5,0.5c-2.4,0.9-4.6,1.8-6.2,2.7c-0.9,0.5-1.7,1-2.2,1.4c-0.1,0.1-0.5,2.2-1.2,5H534.3L534.3,920.2z
			 M495.1,797c0.5,0.8,0.9,1.7,1.3,2.6l0,0c2.1,5.1,4.3,10.7,6.9,15.8c2.1,4.2,4.3,8,6.5,10.5c0.1,0.1,0.6,0.5,1.2,1.1
			c6.2,5.7,12.3,11.4,12.8,23.1c7.3-3,16.1-1.8,22.3,3.9c0.5,0.4,0.9,0.9,1.3,1.3c1.3,1.2,2.2,2,2.5,2.4c0.9,0.9,1.7,1.8,2.4,2.7
			c0.5-0.7,1.1-1.3,1.6-1.9c0.4-0.5,1-1.2,2-2.3c1.1-1.3,2.4-2.8,5.3-6.1c5.6-6.2,14-8.4,21.5-6.3c1.3-7.9,5.3-13.9,10.2-21.1
			c6-8.9,14.5-21.6,11.6-41.3c-0.6-4.3-1.8-8.7-3-13.2c-0.7-2.8-1.5-5.6-2.5-10.1c-1.7-7.4-2.7-13.8-3.7-19.8
			c-2.5-14.7-4.4-26.2-15.7-28.3c3.2,6.3,3.2,14-0.7,20.5c-4.5,7.5-12.9,11.2-21.1,10.1l0,0c-0.9-0.1-1.6-0.2-2.1-0.3
			c-0.5,0-1.2-0.1-2.1-0.2c-11.7-0.7-20.6-10.8-19.9-22.5c0.3-5.4,2.7-10.2,6.3-13.8c-0.8,0.1-1.6,0.2-2.4,0.3
			c-13.3,2.1-23.2,6.9-29.7,14.2c-6.8,7.5-10.7,18.4-11.8,32.2c-0.5,6.5-0.4,12.5-0.4,18.6c0,3.9,0.1,7.8,0,11.6l0,1.3
			C495.6,788.9,495.6,793.2,495.1,797L495.1,797z M623.9,839.1C623.9,839.1,623.9,839.1,623.9,839.1L623.9,839.1z"/>
		<path class="st2" d="M574.9,890c-4.9,6.4-14.5,12.5-24,12.2c-10.5-0.4-16.4-5.7-23.5-12.1c-1.9-1.9-0.9-2.5-3-3
			c-1.7-0.4-12.8,3.5-14.6,4.2c-6,2.3-11.9,4.9-16.1,9.2c-4.3,4.4-5.7,11.5-7.9,19.4c-1.7,6.2-4.1,14.9-5.2,21.6h143
			c-0.9-7.5-2.6-15-4.2-22.4c-4.4-19.7-7.6-18.7-26.8-26.7C578.9,886.8,579.1,885.5,574.9,890z"/>
		<path class="st5" d="M574.9,890c-4.9,6.4-14.5,12.5-24,12.2c-10.5-0.4-16.4-5.7-23.5-12.1c-1.9-1.9-0.9-2.5-3-3
			c-1.7-0.4-12.8,3.5-14.6,4.2c-6,2.3-11.9,4.9-16.1,9.2c-4.3,4.4-5.7,11.5-7.9,19.4c-1.7,6.2-4.1,14.9-5.2,21.6h143
			c-0.9-7.5-2.6-15-4.2-22.4c-4.4-19.7-7.6-18.7-26.8-26.7C578.9,886.8,579.1,885.5,574.9,890L574.9,890z M470.1,807.4
			c4.4-11.4,4.3-13,4.5-26.8c0.2-10.4-0.4-21.2,0.4-31.4c2.8-36.5,22.3-59.9,59.5-65.7c24.7-3.9,29.8,5.3,40.2,5.1
			c41.3-0.8,37.2,29.7,45.2,65.1c1.9,8.6,4.6,16.1,5.9,24.9c6.1,41.2-21.7,58.1-22.1,70.5c-0.3,9.1,11.6,10.1,19.1,11.5
			c-3.2,9-15.1,13.2-26.2,15c-7.7,1.2-11.2-1.9-14.9-5.4c-1.4-1.4-3.1-3.3-4.5-5.7c-3.5,3.9-6.5,7.4-8,9.1
			c0.2,5.7,0.6,14.9,5.8,15.7c-4.8,5.3-14.4,10.4-23.9,10.1c-10.5-0.3-16.3-4.7-23.4-10c6.5-0.1,8.6-7.9,8.4-15.1
			c-0.2-0.4-1.9-2.1-4.3-4.4c-4.5,5-12.1,6.1-18.9,8c-7.5,2.1-9.4,4.6-15.2-0.1c-2.3-1.9-8.3-7.5-9.2-10.6c3-1.6,5.3-0.4,9-3.4
			c2.4-2,4-4.2,4.6-7.5c1.7-9.2-4.3-11.7-8.2-16.2c-7.2-8.1-12.7-21.3-17.1-32.4L470.1,807.4L470.1,807.4z M555,719.1
			c1.9,0.1,3.9,0.3,5.8,0.6c-0.7-0.4-1.6-0.7-2.9-0.8C557,718.9,556,718.9,555,719.1z"/>
		<path class="st4" d="M521.6,892.1c-0.6,0.5,5.1,14.5,22.3,12.7C543.6,905,526.7,902.1,521.6,892.1z"/>
		<path class="st4" d="M521.6,892.1c-0.6,0.5,5.1,14.5,22.3,12.7C543.6,905,526.7,902.1,521.6,892.1z"/>
		<path class="st4" d="M521.6,892.1c-0.6,0.5,5.1,14.5,22.3,12.7C543.6,905,526.7,902.1,521.6,892.1z"/>
		<path class="st4" d="M521.6,892.1c-0.6,0.5,5.1,14.5,22.3,12.7C543.6,905,526.7,902.1,521.6,892.1z"/>
		<path class="st4" d="M521.6,892.1c-0.6,0.5,5.1,14.5,22.3,12.7C543.6,905,526.7,902.1,521.6,892.1z"/>
		<path class="st4" d="M521.6,892.1c-0.6,0.5,5.1,14.5,22.3,12.7C543.6,905,526.7,902.1,521.6,892.1z"/>
		<path class="st4" d="M521.6,892.1c-0.6,0.5,5.1,14.5,22.3,12.7C543.6,905,526.7,902.1,521.6,892.1z"/>
		<path class="st1" d="M489.2,779.7c-4.8,0.6-6.5,2-8.1,6c-1.4,3.6-1.7,8.4-0.9,12.5c1.7,9.3,4.9,12.9,13.8,14.1
			c0.1,7.8,0.9,16.9,1.7,24.5c1.2,10.7,6.5,7.9,13,12.9c5.4,4.2,26.8,22.8,27.4,24.3c0.1,7.2-1.9,15-8.4,15.1
			c7,5.3,12.9,9.7,23.4,10c9.4,0.3,19-4.8,23.9-10.1c-5.2-0.7-5.5-10-5.8-15.7c3.4-3.7,13.6-16.3,20.9-21.8
			c5.8-4.4,15.6-6.7,16.8-16.4c1-8,2.5-14.3,3.1-22.3l1-0.5c0.7-0.3,0.7-0.3,1.5-0.5c6.6-1.7,9.4-4.8,11.2-13.7
			c1-5.1,0.4-13.1-3.5-16.7c-1.9-1.8-4-1.6-5.4-2.2C616.4,700,483.9,697.3,489.2,779.7z"/>
		<path class="st1" d="M489.2,779.7c-4.8,0.6-6.5,2-8.1,6c-1.4,3.6-1.7,8.4-0.9,12.5c1.7,9.3,4.9,12.9,13.8,14.1
			c0.1,7.8,0.9,16.9,1.7,24.5c1.2,10.7,6.5,7.9,13,12.9c5.4,4.2,26.8,22.8,27.4,24.3c0.1,7.2-1.9,15-8.4,15.1
			c7,5.3,12.9,9.7,23.4,10c9.4,0.3,19-4.8,23.9-10.1c-5.2-0.7-5.5-10-5.8-15.7c3.4-3.7,13.6-16.3,20.9-21.8
			c5.8-4.4,15.6-6.7,16.8-16.4c1-8,2.5-14.3,3.1-22.3l1-0.5c0.7-0.3,0.7-0.3,1.5-0.5c6.6-1.7,9.4-4.8,11.2-13.7
			c1-5.1,0.4-13.1-3.5-16.7c-1.9-1.8-4-1.6-5.4-2.2C616.4,700,483.9,697.3,489.2,779.7z"/>
		<path class="st1" d="M489.2,779.7c-4.8,0.6-6.5,2-8.1,6c-1.4,3.6-1.7,8.4-0.9,12.5c1.7,9.3,4.9,12.9,13.8,14.1
			c0.1,7.8,0.9,16.9,1.7,24.5c1.2,10.7,6.5,7.9,13,12.9c5.4,4.2,26.8,22.8,27.4,24.3c0.1,7.2-1.9,15-8.4,15.1
			c7,5.3,12.9,9.7,23.4,10c9.4,0.3,19-4.8,23.9-10.1c-5.2-0.7-5.5-10-5.8-15.7c3.4-3.7,13.6-16.3,20.9-21.8
			c5.8-4.4,15.6-6.7,16.8-16.4c1-8,2.5-14.3,3.1-22.3l1-0.5c0.7-0.3,0.7-0.3,1.5-0.5c6.6-1.7,9.4-4.8,11.2-13.7
			c1-5.1,0.4-13.1-3.5-16.7c-1.9-1.8-4-1.6-5.4-2.2C616.4,700,483.9,697.3,489.2,779.7z"/>
		<path class="st1" d="M489.2,779.7c-4.8,0.6-6.5,2-8.1,6c-1.4,3.6-1.7,8.4-0.9,12.5c1.7,9.3,4.9,12.9,13.8,14.1
			c0.1,7.8,0.9,16.9,1.7,24.5c1.2,10.7,6.5,7.9,13,12.9c5.4,4.2,26.8,22.8,27.4,24.3c0.1,7.2-1.9,15-8.4,15.1
			c7,5.3,12.9,9.7,23.4,10c9.4,0.3,19-4.8,23.9-10.1c-5.2-0.7-5.5-10-5.8-15.7c3.4-3.7,13.6-16.3,20.9-21.8
			c5.8-4.4,15.6-6.7,16.8-16.4c1-8,2.5-14.3,3.1-22.3l1-0.5c0.7-0.3,0.7-0.3,1.5-0.5c6.6-1.7,9.4-4.8,11.2-13.7
			c1-5.1,0.4-13.1-3.5-16.7c-1.9-1.8-4-1.6-5.4-2.2C616.4,700,483.9,697.3,489.2,779.7z"/>
		<path class="st1" d="M489.2,779.7c-4.8,0.6-6.5,2-8.1,6c-1.4,3.6-1.7,8.4-0.9,12.5c1.7,9.3,4.9,12.9,13.8,14.1
			c0.1,7.8,0.9,16.9,1.7,24.5c1.2,10.7,6.5,7.9,13,12.9c5.4,4.2,26.8,22.8,27.4,24.3c0.1,7.2-1.9,15-8.4,15.1
			c7,5.3,12.9,9.7,23.4,10c9.4,0.3,19-4.8,23.9-10.1c-5.2-0.7-5.5-10-5.8-15.7c3.4-3.7,13.6-16.3,20.9-21.8
			c5.8-4.4,15.6-6.7,16.8-16.4c1-8,2.5-14.3,3.1-22.3l1-0.5c0.7-0.3,0.7-0.3,1.5-0.5c6.6-1.7,9.4-4.8,11.2-13.7
			c1-5.1,0.4-13.1-3.5-16.7c-1.9-1.8-4-1.6-5.4-2.2C616.4,700,483.9,697.3,489.2,779.7z"/>
		<path class="st1" d="M489.2,779.7c-4.8,0.6-6.5,2-8.1,6c-1.4,3.6-1.7,8.4-0.9,12.5c1.7,9.3,4.9,12.9,13.8,14.1
			c0.1,7.8,0.9,16.9,1.7,24.5c1.2,10.7,6.5,7.9,13,12.9c5.4,4.2,26.8,22.8,27.4,24.3c0.1,7.2-1.9,15-8.4,15.1
			c7,5.3,12.9,9.7,23.4,10c9.4,0.3,19-4.8,23.9-10.1c-5.2-0.7-5.5-10-5.8-15.7c3.4-3.7,13.6-16.3,20.9-21.8
			c5.8-4.4,15.6-6.7,16.8-16.4c1-8,2.5-14.3,3.1-22.3l1-0.5c0.7-0.3,0.7-0.3,1.5-0.5c6.6-1.7,9.4-4.8,11.2-13.7
			c1-5.1,0.4-13.1-3.5-16.7c-1.9-1.8-4-1.6-5.4-2.2C616.4,700,483.9,697.3,489.2,779.7z"/>
		<path class="st1" d="M489.2,779.7c-4.8,0.6-6.5,2-8.1,6c-1.4,3.6-1.7,8.4-0.9,12.5c1.7,9.3,4.9,12.9,13.8,14.1
			c0.1,7.8,0.9,16.9,1.7,24.5c1.2,10.7,6.5,7.9,13,12.9c5.4,4.2,26.8,22.8,27.4,24.3c0.1,7.2-1.9,15-8.4,15.1
			c7,5.3,12.9,9.7,23.4,10c9.4,0.3,19-4.8,23.9-10.1c-5.2-0.7-5.5-10-5.8-15.7c3.4-3.7,13.6-16.3,20.9-21.8
			c5.8-4.4,15.6-6.7,16.8-16.4c1-8,2.5-14.3,3.1-22.3l1-0.5c0.7-0.3,0.7-0.3,1.5-0.5c6.6-1.7,9.4-4.8,11.2-13.7
			c1-5.1,0.4-13.1-3.5-16.7c-1.9-1.8-4-1.6-5.4-2.2C616.4,700,483.9,697.3,489.2,779.7z"/>
		<path class="st6" d="M470.1,807.4l6.6,0.1c4.4,11.1,9.9,24.3,17.1,32.4c4,4.5,9.9,7,8.2,16.2c-0.6,3.3-2.1,5.5-4.6,7.5
			c-3.7,3-6,1.8-9,3.4c0.9,3.1,6.9,8.7,9.2,10.6c5.8,4.7,7.7,2.2,15.2,0.1c10.1-2.8,21.9-3.9,22.9-18.7l-12.6-9.6
			c-13.8-11.5-20.4-21.9-23.3-43.1c-0.6,2.7-0.6,4-3.1,5.4c-8.9,3.2-13.2-14.3-7.7-21.3c4.8-6.2,9.6-10.7,15.9-19
			c4.7-6.2,9.2-13.4,13.6-21.2c5.7-10.2,5.7-14,14.2-21.3c4.7-4,17.2-10,25.1-9.8c3,0.1,4,1.7,5.6,3.1c1.8,1.6,3,2.6,4.7,4
			c21.5,18.2,16.8,12.6,27.4,43l4.9,12.7c0.1,0.1,0.2,0.3,0.3,0.4c3.4-1.6,7.4-5.9,11.1-0.7c4.9,6.8-2.9,23-8.2,29.4
			c-9.1,10.6-2.6,3.2-9.1,15.7c-3.7,7.1-8.2,14.1-12.9,20.7c-2.2,3.2-5.1,6.4-7.3,9.7c0.8,5.6,4.6,10.5,7.3,13.1
			c3.7,3.5,7.2,6.6,14.9,5.4c11.1-1.8,23-6,26.2-15c-7.5-1.4-19.3-2.4-19.1-11.5c0.3-12.5,28.1-29.3,22.1-70.5
			c-1.3-8.8-4-16.3-5.9-24.9c-8-35.3-3.8-65.8-45.2-65.1c-10.4,0.2-15.5-8.9-40.2-5.1c-37.2,5.8-56.6,29.2-59.5,65.7
			c-0.8,10.3-0.2,21.1-0.4,31.4C474.3,794.4,474.4,795.9,470.1,807.4z"/>
		<path class="st4" d="M491.2,739.5c-1.6-0.9,5.3-36,47.4-40.3C537.8,698.9,498.7,713.9,491.2,739.5z"/>
	</g>
	<g>
		<path class="st0" d="M1127.9,155c0,0.9,0,1.8,0.2,2.6c0.3,1.8,0.1,2.3,0.3,2.5c0.5,0.5-0.2-0.7,0.7-0.5
			c8.4,1.1,14.4,8.4,14.1,16.7c0,2.9,0.2,6.4,0.5,10.3c0.3,4.6,0.8,9.3,1.3,13.5c0.4,3.9,0.7,5.9,0.8,6.1c0.2,0.4,0.6,0.2,2.2,1.4
			c2.2,1.7,9.2,5.9,16,9.9l0,0l0.2,0.1c1.1,0.7,2.1,1.4,3,2.3c1,0.8,2.2,1.7,3.5,2.4c1.6,1,3.3,1.8,4.8,2.5c1,0.4,1.9,0.9,2.8,1.5
			l0,0c1.3,0.9,2.3,1.5,2.8,1.9c2.7,2.1,4.7,4.5,6,7.4c1,2.3,1.4,4.8,1.2,7.2c0,2.9-0.2,5.9-0.8,8.7c-0.7,3.5-1.8,6.9-3.4,9.8
			c-2.5,4.6-6.8,7.5-11.5,8.3c-4.2,2.5-9.4,3.1-14.1,1.3c-0.6-0.2-1.1-0.4-1.6-0.5c-1.3,0.9-2.9,1.9-4.7,2.9
			c-1.5,0.9-2.2,1.3-2.4,1.4l0,0c0.2-0.1,0.4-0.3,0,0c-7.5,4.4-20.4,12-21.3,15c-0.4,1.5-0.8,3.5-1,5.7l36.8,0l17,0
			c0.3-0.2,0.7-0.3,1-0.5c3-1.3,6.1-1.7,9.1-1.2c1.9,0.2,3.7,0.8,5.4,1.7l18,0l36.3,0c-0.3-2.2-0.7-4.2-1.2-6
			c-0.3-1.1-2.5-2.5-4.8-3.9c-1.1-0.7-2.3-1.5-2.7-1.7c-6.3-4.2-3.4-2.2-4.3-2.9c-4.3-2.9-8.6-5.8-12.2-8c-1.2-0.7-2.2-1.4-3.1-2
			c-5.5,2.6-12.2,2-17.2-2c-1.1-0.2-2.2-0.6-3.2-1.1c-4.3-1.9-7.3-5.5-8.7-9.6l0,0c-1-2.9-1.6-6.2-1.9-9.3c-0.3-2.3-0.4-4.7-0.4-6.9
			c-0.3-8,5.2-14.9,12.8-16.5c5.6-1.3,10.8-3.2,14.8-5.7c2.1-1.4,3.6-2.6,4-3.7c1.3-3.4,3.6-6.2,6.5-8c0.1-0.1,0.3-0.2,0.7-0.5
			c0.2-0.1,0.4-0.3,0.7-0.5c1-0.8,1.4-0.9,1.5-1c0.3-0.7,0.6-2.6,1-6.1c0.7-5.6,1-11,1.3-16.3c0.2-3.3,0.4-6.6,0.5-8.7
			c0.5-6.5,4.6-11.8,10.3-14l0,0c0.5-0.2,1-0.4,1.5-0.6l0,0l0.3-0.1c1-0.3,1.2-0.4,2.5-0.8c0.1-0.5,0.3-1.3,0.5-2.3
			c0.1-0.5,0.1-1.3,0.1-2.2c-7.5-3.4-11.3-11.9-8.7-19.9c1.6-4.8,5.2-8.4,9.6-10.1c0-1.2,0-2.4,0-3.5c0-15.5-4-27.7-10.9-36.9
			c-7.6-10.3-19.1-17.2-32.5-21.3c-2.3-0.7-4.4-1.9-6.1-3.4c-22.7,1-40.7,2.9-51.4,10.3c-9.6,6.7-14.9,20.1-14.9,45.5h0.1
			c0,15.7,0-6.2-0.1,2.4c0,5.5-0.1,16.5,0.4,20.7C1136.5,145.7,1133.3,151.8,1127.9,155L1127.9,155z M1149.8,274.7
			C1149.7,274.8,1149.7,274.8,1149.8,274.7L1149.8,274.7z"/>
		<path class="st1" d="M1121.7,140.6c-5.1,0.6-7,2.1-8.7,6.4c-1.6,3.9-1.8,9-1,13.4c1.8,9.9,5.3,13.8,14.8,15.1
			c0.1,8.4,0.9,18.1,1.9,26.2c1.3,11.4,2.2,13.2,9.2,18.5c5.8,4.5,33.4,19.7,34.1,21.4c0.2,7.8-2.1,16.1-9,16.2
			c7.6,5.7,15,51.6,26.3,51.9c10.1,0.3,19.2-46.3,24.3-52c-5.5-0.8-5.9-10.7-6.2-16.8c3.7-4,25.2-15,33-20.9
			c6.2-4.7,7.6-7.7,8.9-18.1c1-8.6,1.3-17.1,1.9-25.7l1.1-0.5c0.8-0.3,0.8-0.3,1.6-0.5c7.1-1.8,10.1-5.1,12-14.7
			c1.1-5.5,0.4-14-3.8-17.9c-2-1.9-4.3-1.7-5.8-2.3C1258.1,55.2,1116.1,52.3,1121.7,140.6z"/>
		<path class="st1" d="M1119.6,141c-3.5,0.8-5.1,2.4-6.5,6.1c-1.5,3.9-1.8,9-1,13.4c1.8,9.9,5.3,13.8,14.8,15.1
			c0.1,8.4,0.9,18.1,1.9,26.2c1.3,11.4,2.2,13.2,9.2,18.5c2.8,2.1,10.5,6.7,17.9,11.1c3.8,3.3,8.4,6.1,13.5,8.2
			c1.6,1,2.5,1.8,2.7,2.1c0.1,4.2-0.5,8.6-2.2,11.7l-1-2.5c-1.8,1.7-3.3,2.4-4.7,4.7c-13-3.9-6-4.8-20.3,3.7
			c-9,5.3-28.1,15.9-30.9,26c-1.9,6.8-2.5,18.8-2.5,26.3l53.9,0l50.4,0l53.6,0c-0.3-9.2-0.4-18.7-2.8-26.9
			c-2.4-7.9-8.4-10.7-14-14.5c-5.8-3.9-11.1-7.6-17.2-11.3c-6-3.6-11.6-10.5-18.5-2.7c-1.4-2.1-3.5-3.2-6-5l-0.8,1.8
			c-1.2-3.5-1.4-8.1-1.6-11.6c13.8-3.1,26.7-9.6,30.5-19.6c0.9-0.6,1.8-1.2,2.5-1.8c6.2-4.7,7.6-7.7,8.9-18.1
			c1-8.6,1.3-17.1,1.9-25.7l1.1-0.5c0.8-0.3,0.8-0.3,1.6-0.5c7.1-1.8,10.1-5.1,12-14.7c0.8-4.1,0.7-9.8-1.2-14.1
			c2.4-6.8,2.6-17,2.6-24.7c0-40.8-23.3-64.2-54.9-73.8c3.1-3.1,7.2-1.8,7-7.7c-0.8,0-7.9,3.1-17.9,3.5
			c-51.5,2.3-82.4,8.8-82.4,72.1C1119.1,120.2,1118.9,135.3,1119.6,141L1119.6,141z M1188.8,309.8c0.1,0,0.3,0,0.4,0l0,0l-0.2,0.5
			L1188.8,309.8L1188.8,309.8L1188.8,309.8z M1262.9,143.4c-0.2-0.3-0.5-0.5-0.7-0.8c-1.8-1.7-3.9-1.7-5.3-2.2
			c1.2-0.4,2.5-0.4,3.9,0.2C1262,141.5,1262.6,142.4,1262.9,143.4z"/>
		<path class="st6" d="M1119.1,115.9c0,4.9-0.2,24.2,0.8,26.9c3.8,1.5,10-1.1,12.8,2.4c2.7,3.3,1.6,9.6,1.8,14.6
			c10.8-18-4.7-49.4,12.9-56.4c3,1.6,4.2,5.6,9.5,10.3c9.1,8,29.9,19.2,40,19.6c-1.9-3.6-5.4-6.6-5.9-12.4
			c3.5,1.6,12.1,12.6,21.7,11.4c-2.3-2.7-6.5-7.4-6.6-12.5c5.2,3,7.7,7,14.8,10.2c11.1,5.1,14,0.9,23.4,2.8c2.3,7.9-0.6,20.8,4.4,28
			c2.3-4.1,2.2-8.2,3-13.7c0.6-4.4,4.5-8.5,9-6.7c3.1,2.2,2,4.3,3.4,7.3c3-6.8,3.2-17.9,3.2-26.2c0-40.8-23.3-64.2-54.9-73.8
			c3.1-3.1,7.2-1.8,7-7.7c-0.8,0-7.9,3.1-17.9,3.5C1150,46.1,1119.1,52.6,1119.1,115.9z"/>
		<path class="st6" d="M1145.9,216.1c3.6,15.1,23.8,28.3,45.5,27.5c19.4-0.8,44.4-8.8,47.4-24.6c-10.2,3.8-22.1,6.7-32.6-0.2
			c-11.3-7.5-0.4-23-19.1-20c-4.6,8.4-4.3,15.1-13.4,20.5C1163.1,225.6,1154.4,218.6,1145.9,216.1z"/>
		<path class="st4" d="M1126.9,98.4c-1.7-1,5.7-38.6,50.8-43.2C1176.8,54.8,1134.9,70.9,1126.9,98.4z"/>
		<path class="st4" d="M1157.4,224.9c-0.6,0.6,5.6,15.5,24.7,13.6C1181.8,238.7,1163,235.6,1157.4,224.9z"/>
		<g>
			<path class="st3" d="M1110.4,311.7l53.9,0c0.4-7.3-1.6-19.9-2.1-28.6l-0.8-22.4c0.5-3.5,0.7-2.3,2.7-5.1c-13-3.9-6-4.8-20.3,3.7
				c-9,5.3-28.1,15.9-30.9,26C1111,292.2,1110.4,304.1,1110.4,311.7z"/>
			<path class="st3" d="M1215.8,256.3c0.1,0.3,0.3,0.7,0.4,0.9c0.1,0.2,0.3,0.6,0.4,0.9c0.8,2.1-0.8-2.7,0.7,1.7
				c1.7,4.8-2,48.1-2.5,51.8l53.6,0c-0.3-9.2-0.4-18.7-2.8-26.9c-2.4-7.9-8.4-10.7-14-14.5c-5.8-3.9-11.1-7.6-17.2-11.3
				C1228.2,255.4,1222.6,248.5,1215.8,256.3z"/>
			<path class="st3" d="M1164.1,255.6c-2,2.8-2.2,1.6-2.7,5.1l0.8,22.4c0.4,8.7,2.4,21.3,2.1,28.6l50.4,0c0.4-3.8,4.1-47,2.5-51.8
				c-1.5-4.3,0.2,0.5-0.7-1.7c-0.1-0.3-0.3-0.7-0.4-0.9c-0.1-0.2-0.3-0.6-0.4-0.9c-1.4-2.1-3.5-3.2-6-5l-1.8,4.1l-18.8,55
				c-4-9-6-17.6-9.4-27.4c-3-8.7-6.8-18.6-9.2-27.7l-1.7-4.3C1167,252.6,1165.5,253.4,1164.1,255.6z"/>
			<path class="st5" d="M1110.4,311.7l53.9,0c0.4-7.3-1.6-19.9-2.1-28.6l-0.8-22.4c0.5-3.5,0.7-2.3,2.7-5.1c-13-3.9-6-4.8-20.3,3.7
				c-9,5.3-28.1,15.9-30.9,26C1111,292.2,1110.4,304.1,1110.4,311.7z"/>
			<path class="st5" d="M1215.8,256.3c0.1,0.3,0.3,0.7,0.4,0.9c0.1,0.2,0.3,0.6,0.4,0.9c0.8,2.1-0.8-2.7,0.7,1.7
				c1.7,4.8-2,48.1-2.5,51.8l53.6,0c-0.3-9.2-0.4-18.7-2.8-26.9c-2.4-7.9-8.4-10.7-14-14.5c-5.8-3.9-11.1-7.6-17.2-11.3
				C1228.2,255.4,1222.6,248.5,1215.8,256.3z"/>
			<path class="st7" d="M1164.1,255.6c-2,2.8-2.2,1.6-2.7,5.1l0.8,22.4c0.4,8.7,2.4,21.3,2.1,28.6l50.4,0c0.4-3.8,4.1-47,2.5-51.8
				c-1.5-4.3,0.2,0.5-0.7-1.7c-0.1-0.3-0.3-0.7-0.4-0.9c-0.1-0.2-0.3-0.6-0.4-0.9c-1.4-2.1-3.5-3.2-6-5l-1.8,4.1l-18.8,55
				c-4-9-6-17.6-9.4-27.4c-3-8.7-6.8-18.6-9.2-27.7l-1.7-4.3C1167,252.6,1165.5,253.4,1164.1,255.6z"/>
		</g>
	</g>
	<g>
		<path class="st0" d="M296.3,941.5c2.5-0.7,4.3-1.5,5.7-2.3c-3.6-4.7-9.1-23.8-12.3-23.9v0c-0.7,0-1.2,0-1.6,0
			c-1,0-1.6-0.1-1.7-0.1l-4.7-0.3l-0.3,16.8l-5.1-17.1l-10.1-0.5l0.7-2.4c-6.3-2-11.9-4.6-16.5-7.5l0,0c-5.9-3.7-10.6-7.9-13.7-11.7
			l12.3-28.3c1.3,0.1,2.1,0.2,2.3,0.2c0.6,0,1.2,0,1.9,0c1.9-0.1,3.9-0.5,5.9-1c1.9-0.6,4-1.4,6-2.5c0.4-0.2,0.7-0.4,0.9-0.5
			c13.5-7.6,21.6-22.4,25.1-38.6c3.7-16.9,2.3-34.9-3.2-47.9c-0.2-0.4-0.3-0.8-0.4-1l-1.4-4.6c-2-12.2-6.5-24-13.3-34.1
			c-6.3-9.3-14.6-17.1-24.6-22.2c-3.2-1.6-7.1-3.1-11.4-4.2c-3.7-1-7.4-1.6-10.8-1.7c-9.6-0.2-19.9,4.7-29.3,12.8
			c-10.1,8.8-18.9,21.4-24.3,35.8l-1.8,3.6c-1.4,2.1-2.6,4.4-3.7,7.1c-5.6,13.3-7.4,31.2-4.5,48.7c2.8,17,10,33.2,22.3,43.3
			c2.4,1.9,5,3.7,7.8,5.2c2.3,1.2,4.6,2.2,6.9,2.8c2.3,0.7,4.6,1,6.8,1.2c0.6,0,0.6,0,0.7,0c0.4,0,0.7,0,0.8,0l10.5,29.1
			c-4.7,5-11.8,9.6-20.8,12.4c-6.9,2.1-15.1,3.4-24.6,3l-2.9-0.1c-3.7,1.2-11.8,23.1-16.5,30.4l-0.2,0.3H296.3z"/>
		<path class="st1" d="M169.8,893.9c-6.1-0.7-30.7,32.4-32.7,47.6h181.4c1-13-18.1-42.9-28.5-43.1c-28.4-0.4-45.1-17.5-45.3-23.8
			c3.4-4.2,23.5-15.6,30.8-21.7c5.8-4.9,7.1-8,8.3-18.9c1-8.9,1.2-17.8,1.8-26.7l1-0.6c0.7-0.3,0.7-0.3,1.5-0.5
			c6.6-1.9,9.4-5.3,11.2-15.3c1-5.7,0.4-14.6-3.5-18.6c-1.9-2-4-1.7-5.4-2.4c1.6-88.3-130.9-91.4-125.6,0.4
			c-4.8,0.6-6.5,2.2-8.1,6.7c-1.4,4-1.7,9.4-0.9,14c1.7,10.3,4.9,14.4,13.8,15.7c0.1,8.7,0.9,18.8,1.7,27.2
			c1.2,11.9,2.1,13.7,8.6,19.3c5.4,4.6,31.1,20.5,31.8,22.2C211.8,883.4,196.8,896.3,169.8,893.9z"/>
		<path class="st1" d="M186.2,877.7c6.5,3.4,13.1,5.2,19.3,5.6c0.7,0,1.5,0.1,2.3,0.1c-5.7,6-17.4,11.5-34.4,10.8
			c-0.1-0.4-0.3-0.9-0.4-1.3c-1.4,0.2-2.9,0.6-4.4,1.2c-7.6,1.2-29.7,33.2-31.5,47.6h181.4c1-13-18.1-42.9-28.5-43.1
			c-0.9,0-1.9,0-2.8-0.1c0.2-0.5,0.3-1,0.4-1.5c-3-1.1-12.6-4.6-15.5-4.5c-0.4,0.9-0.7,2-1,3.1C259.9,892,252,886,247.9,881
			c2.4,0.2,4.5,0.2,6.1,0.1c5.7-0.3,11.8-2,17.7-5.1c37.5-19.8,44.3-78.2,29.5-110.9c-4.6-28.8-21-55.7-46.6-68.6
			c-7.9-4-18.4-7.3-28.2-7.4c-26.5-0.4-55,24.9-67.8,59C136.8,781.1,141.7,854.2,186.2,877.7z"/>
		<path class="st8" d="M224.1,868.6c-0.3,0-0.3-0.1-0.9,0c-1.1,0,1.1-0.1-0.6,0.1c-6.3,0.7-34.1-31.2-35.6-37.1
			c-9.9-40.5-7.8-53.2,4.7-89.6l-26.6-1.6c-0.2,0.2-0.3,0.3-0.5,0.5c-28.3,27.8-26.5,111.4,21.7,136.9c6.5,3.4,13.1,5.2,19.3,5.6
			c4.8,0.3,14.6-0.4,20.2-3.8c-1.7-1-7.3-1.6-10.8-4.5L224.1,868.6z"/>
		<path class="st8" d="M237,867.7c0.2,0,0.3-0.1,0.8,0c1,0-1-0.1,0.6,0c5.7,0.6,31.2-28.5,32.6-33.9c9.1-37.1,7.1-48.7-4.3-82
			l24.4-1.5c0.2,0.1,0.3,0.3,0.5,0.4c25.9,25.5,24.2,102-19.8,125.3c-5.9,3.1-12,4.8-17.7,5.1c-4.4,0.3-13.4-0.3-18.5-3.4
			c1.5-0.9,6.7-1.4,9.9-4.1L237,867.7z"/>
		<path class="st6" d="M203.4,851.8c-0.2-0.3-0.2-0.3-0.9-0.8c-1.1-0.9,1.1,0.8-0.6-0.5c-7.9-5.9-14.8-12.4-16.1-24.9
			c-1.5-14.2,0.8-26.6,5.1-38.4c4.2-11.4,9.6-20.2,15.7-28.3c4.1-5.4,15.6-18.9,20.9-21.8c1.9,1.6,3,3.6,4.6,5.4
			c4.1,4.6,10.2,9.6,15.4,13.1c6.4,4.3,16.9,10.6,24.7,13c1.2,9,3.9,44.2,2.3,51.6c-3.4,16.5-15.9,24.5-21.3,31.3
			c4.4-0.9,7.5-2.5,11.2-3.5c-1.3,3.5-6.7,9.6-8.9,11.7c13.5,0.4,30.3-21.6,37.1-34.8c22.5-44,5.6-106.3-38-128.5
			c-7.9-4-18.4-7.3-28.2-7.4c-45-0.8-95.9,73.1-65.4,137.3c4.1,8.6,9.4,16,15.2,21.8c4.5,4.5,14.4,12.5,22,14.5
			c-1-2.3-6.1-7.7-7.6-13.4L203.4,851.8z"/>
		<path class="st9" d="M278.3,941.5c1.2-5.5,2.7-26.5,4.7-32.7c1.3-4,3.8-8.7,4.5-11.9c-3-1.1-12.6-4.6-15.5-4.5
			c-2.7,7.3-2.6,35.7-15.2,48.4c-0.2,0.2-0.5,0.5-0.7,0.7H278.3z"/>
		<path class="st9" d="M192.6,941.5c-0.9-0.7-1.8-1.4-2.6-2.2c-8.5-7.8-12.9-33.3-17-46.5c-3.2,0.4-7.4,2.4-10.1,3.5
			c1.3,8.9,5.5,27.6,7.5,45.2H192.6z"/>
		<path class="st4" d="M168.1,750.1c-1.6-1,5.3-40.1,47.3-44.9C214.6,704.8,175.5,721.5,168.1,750.1z"/>
	</g>
	<g>
		<path class="st0" d="M514.7,191.2c0,0.3,0.1,0.3,0.1,0.4l0,0l0,0l0,0l0,0c0-0.1,0-0.3,0,0c0.3,0.9,0.5,1.7,0.6,2.6
			c0.3,0.8,0.8,1.6,1.4,2.3c1.7,1.8,4.4,3.7,7.5,5.8c2.4,1.6,5.1,3.1,8,4.6c2.6,1.3,5.5,2.5,8.7,3.6c4.7,1.5,8.5,4.6,11,8.4
			c2.7-3.8,6.7-6.6,11.4-7.9c4.1-1.4,8.2-3.4,12.1-5.7c5.1-3,9.8-6.5,13.5-9.8c0,0,0-0.1,0.1-0.3c-1-2.9-1.4-6.1-1-9.2l0,0l0-0.1
			c0.7-6,3.8-11.1,8.3-14.4c1.2-1.3,2.8-4.5,4.5-8.5c3.6-8.5,6.2-18.3,7.3-24.6c1.7-9.8,1.6-20-0.9-28.9c-1.9-6.7-5.1-12.6-10-16.7
			c-0.5-0.4-0.9-0.8-1.4-1.3c-4-3.5-6.2-6.5-8.5-9.6c-1.8-2.5-3.7-4.9-12.7-7.8c-5.4-1.7-10.3-2.7-15.3-3.8
			c-2.8-0.6-5.7-1.2-8.6-1.9c-1.3,1.2-2.7,2.3-4.3,3.2c-2.1,1.2-4.3,2-6.6,2.4c-7.3,1.6-14.1,3.2-19.7,5.3
			c-4.8,1.7-8.8,3.8-11.9,6.4c-7.2,6.3-8.8,13.5-11.8,27.1l-0.2,0.9c-2.4,10.6-3.8,21.3-3.2,31.4c0.5,8.8,2.8,17.3,7.6,24.8
			c1,1.6,2.7,4,4.4,6.2c1,1.3,2.2,2.6,3.2,3.7C511.9,183.1,513.9,187,514.7,191.2L514.7,191.2L514.7,191.2z M514.8,191.6
			L514.8,191.6C514.8,191.7,514.8,191.9,514.8,191.6L514.8,191.6L514.8,191.6L514.8,191.6L514.8,191.6L514.8,191.6z M551.5,246.2
			c-0.3,0.5-0.6,1.1-0.9,1.6c-1.5,2.6-3.4,4.7-5.7,6.3c0.5,0.8,1,1.7,1.6,2.9c1.2,2.3,1.8,4.1,2.5,6c0.4,1,0.8,2.1,1.5,3.5
			c4.2,7.7,3,16.9-2.3,23.3c1.7-0.5,3.5-0.7,5.3-0.7V289h0c2.9,0,5.6,0.6,8.1,1.6h64.5c-0.1-0.4-0.1-0.8-0.2-1.1l-0.1,0
			c-0.2-1.7-0.7-3.7-1.4-5.5c-0.3-0.7,0.2-0.5-0.1-0.8c-0.4-0.4-7.1-3.3-15-6.7c-11.4-4.8-23.1-9.3-25.1-9.5
			c-5.8-0.6-10.8-3.6-14.2-7.9c-4.5-0.2-9-1.8-12.8-4.9c-2.1-1.8-3.8-4-5-6.3C552,247.4,551.7,246.8,551.5,246.2L551.5,246.2z
			 M506.5,272.4c-6,2.2-12,4.3-17.5,6.9c-2.3,1.1-3.4,1.6-4.5,2c-2.3,1-3-0.4-3.8,0.8c-0.1,0.1-0.7,3.3-1.9,8.5h37.8
			c-1.2-1.3-2.2-2.7-3-4.2c-0.3-0.5-0.5-1-0.8-1.5C510.9,281.3,508.6,276.7,506.5,272.4L506.5,272.4z M589.7,192.7
			c-0.1,0.4,0-0.3,0.2-0.9C589.8,192.1,589.7,192.4,589.7,192.7L589.7,192.7z"/>
		<path class="st1" d="M486.5,133c-4.9,0.5-6.7,2-8.3,5.9c-1.5,3.6-1.7,8.3-0.9,12.4c1.8,9.2,5.1,12.7,14.2,13.9
			c0.1,7.8,0.9,16.7,1.8,24.2c1.3,10.6,2.1,12.1,8.8,17.1c5.6,4.1,32,18.2,32.7,19.7c0.1,7.2-2,14.8-8.7,14.9
			c7.2,5.3,13.3,9.6,24,9.9c9.7,0.3,19.6-4.8,24.5-10c-5.3-0.7-5.7-9.9-5.9-15.5c3.5-3.7,24.2-13.8,31.7-19.3
			c6-4.3,7.3-7.1,8.5-16.7c1-7.9,1.2-15.8,1.8-23.7l1.1-0.5c0.8-0.3,0.7-0.3,1.6-0.5c6.8-1.7,9.6-4.7,11.5-13.6
			c1.1-5.1,0.4-12.9-3.6-16.5c-2-1.7-4.1-1.5-5.5-2.2C617.4,54.2,481.1,51.5,486.5,133z"/>
		<path class="st1" d="M494.1,195c0.2,1.1,0.4,2,0.7,2.9c2.3,10.5,9.4,16.1,18.2,21.8c6.1,4,13.4,7.9,21.6,10.6
			c-0.3,2.6-0.9,5-2.1,6.9c-1.7-1.9-3.1-3.6-4-4.8c-0.8,1.6-0.9,3.3-1.6,4.6c-1.9,3.3,0.2,0.9-3.4,2.3c-4.3,1.7-4.2,1.4-5.9,6.4
			c-11.9,5.2-25.9,9.1-37.5,14.6c-5.8,2.8-13.4,5.1-16.7,10c-3.1,4.5-7.7,25.7-9.6,41.3h200.4c-3.3-11.7-7.5-24.1-7.3-24.5
			c-0.8-6.5-3.6-14.7-7.3-18.5c-5.8-6-46.2-21.7-52.9-22.4c-0.5-9.7-6.2-7.1-7.3-8.1c-1.9-2.9-1.5-3.4-2.6-6.3
			c-2,1.7-3.9,4.1-5.8,6.3c-1-1.9-1.5-4.5-1.8-7c13-4.2,25.4-12.5,33.9-20c5.7-5,6.2-9.3,8.1-18c-0.3-3.2-0.7-3.9-2-4.9l0-0.1
			c10.4-8.2,17.7-33.5,20-46.4c4.2-24-0.4-50.6-18.2-65.3c-9.2-7.6-7.2-15.4-29.6-22.5c-13.9-4.4-25.4-4.8-41.5-10.7
			c-3.3-1.2-10.2-5.1-12.7-4.8c-0.4,4.4,1.1,5.8,3.1,8.6c2,2.8,5.5,4.7,6.4,6.3c-16.6,3.5-31.3,7.6-41.6,16.5
			c-12.7,11-14.6,20.7-18.8,39.4c-5.5,24.7-6.8,50.4,7.3,72.2C485.4,184.7,490.1,191.2,494.1,195L494.1,195z M521.3,255l3.1,6
			c1.5,2.9,2.2,3.1,3.5,5.5c1.5,3,1.8,5.5,4.3,10C528.7,270.4,524.2,260.8,521.3,255L521.3,255z M553.3,311.4c0-0.2,0.1-0.5,0.2-0.8
			C553.3,310.9,553.3,311.2,553.3,311.4L553.3,311.4L553.3,311.4z M553.4,310.6c0.1-0.2,0.1-0.3,0.2-0.5h0
			C553.5,310.3,553.5,310.4,553.4,310.6z"/>
		<path class="st3" d="M497.3,197.6c-0.7-5.5-1.7-10.8-2.2-16.4c-0.4-3.8-0.4-13.7-1.3-16.4c-3.7-1.6-5.6-0.5-8.5-3.5
			c-6.7-6.6-6.9-21.9-1.3-26c2.4,4.6,4.9,12.5,8.6,19.7c0.5,1,1.1,2.2,1.6,3.1l1.9,2.6c-0.8-7.4-3-11.2-2.2-20.2
			c0.4-4.8,2.1-14.3,7.6-15.2c0.2,3.1-0.4,5.6-1.4,7.9c-1.1,2.7-2.4,3.6-3.1,5.9c12.8-0.8,23.2-15.3,29.2-17.3c-0.8,2.7-2.4,4-4,5.5
			c-1.5,1.4-3.7,2.6-4.8,4c10.9-0.9,23.2-12.1,29.7-11.8c0.3,9.2-12.2,17-12.2,21.2c11.2,3.2,27.9-7.2,34.5-11.8
			c13.5-9.5,21.2-20.7,23.9-22.7c1.6,11.5,2.1,20.2,7,29.6c1.1,2.2,2.4,3.3,3.7,5.9c4.5,9,3.3,17.8,5.3,21.3
			c4.2-5.9,5.7-25.4,7.1-29c9,1.1,11,29.6-7.3,30.5l0.8,32.4c11.5-6.3,16.8-41.3,19.2-55c4.2-24-0.4-50.6-18.2-65.3
			c-9.2-7.6-7.2-15.4-29.6-22.5c-13.9-4.4-25.4-4.8-41.5-10.7c-3.3-1.2-10.2-5.1-12.7-4.8c-0.4,4.4,1.1,5.8,3.1,8.6
			c2,2.8,5.5,4.7,6.4,6.3c-16.6,3.5-31.3,7.6-41.6,16.5c-12.7,11-14.6,20.7-18.8,39.4c-5.5,24.7-6.8,50.4,7.3,72.2
			C486,185.7,493,195.2,497.3,197.6z"/>
		<path class="st0" d="M489,101.5c-1.6-0.9,5.3-35.6,46.8-39.8C535.1,61.3,496.3,76.2,489,101.5z"/>
		<path class="st10" d="M528.5,232.5c-0.8,1.6-0.9,3.3-1.6,4.6c-1.9,3.3,0.2,0.9-3.4,2.3c-4.3,1.7-4.2,1.4-5.9,6.4l3.7,9.2l3.1,6
			c1.5,2.9,2.2,3.1,3.5,5.5c1.8,3.5,1.9,6.4,5.9,12.7l9.4,17.1c0.6,1.5,0.8,1.8,1.6,3.2c0.9,1.5,0.1,0.1,1,1.6
			c0.7,1.3,0.2,0.1,1,1.9c0.6,0.8,2,3.3,2.7,4.6c0,0.1,1.5,2.4,1.6,2.5c1.6,1.5-0.2,0.7,2.2,1.2c0.1-3.1,13.7-24.4,17.3-31.5
			l16-33.7c-0.5-9.7-6.2-7.1-7.3-8.1c-1.9-2.9-1.5-3.4-2.6-6.3c-3.4,3.1-6.7,7.9-10.1,11.1c-2.5,2.4-9.1,7.5-13.6,7.7
			C544,251.1,532.1,237.1,528.5,232.5z"/>
		<path class="st11" d="M552.9,251.4l-0.9-0.4c-2.1,3.4-5.1,6.5-7.1,10.1c3.1,5.5,3.6,0.8,2.4,10.6l-4.2,38.2l18.4,0.4
			c0-7.4-2.6-28.3-3.7-37.6c-1-8.6-1.4-7.2,1.1-10.2c1.3-1.6,0,0.6,1.1-1.4L552.9,251.4z"/>
		<path class="st12" d="M654.2,311.7c-3.3-11.7-7.5-24.1-7.3-24.5c-0.8-6.5-3.6-14.7-7.3-18.5c-5.8-6-46.2-21.7-52.9-22.4l-16,33.7
			c-3.6,7.2-17.3,28.4-17.3,31.5c-2.4-0.5-0.7,0.3-2.2-1.2c0,0-1.5-2.4-1.6-2.5c-0.8-1.4-2.1-3.9-2.7-4.6c-0.9-1.8-0.3-0.7-1-1.9
			c-0.9-1.5-0.1-0.1-1-1.6c-0.9-1.4-1-1.7-1.6-3.2l-9.4-17.1c-3.5-5.5-8.9-17.5-12.4-24.2l-3.7-9.2c-11.9,5.2-25.9,9.1-37.5,14.6
			c-5.8,2.8-13.4,5.1-16.7,10c-3.1,4.5-7.7,25.7-9.6,41.3H654.2z"/>
	</g>
	<path class="st4" d="M502.8,410.1c-1.5-0.9,5-33.6,44.2-37.6C546.2,372.2,509.7,386.2,502.8,410.1z"/>
	<g>
		<path class="st0" d="M493.5,459.2l13.1,1.7l0.2,18.3c0,2.5,0.2,5.9,0.5,9.8c0.3,4,0.7,8.2,1.2,12.2c0.2,1.7,0.4,3,0.5,3.9
			c0.1,0.4,0.1,0.6,0.2,0.8l0.4,1.8c0.3,1.2,0.9,2.1,1.7,3c1.7,1.9,4.4,3.8,7.5,5.8c2.4,1.6,5.1,3.2,8.1,4.6
			c2.6,1.3,5.5,2.6,8.8,3.6l11.9,3.9l9.7-3.1c4.4-1.4,8.8-3.5,13-6c4.1-2.4,8-5.2,11.3-7.9l1.3-11.4c0.5-4.7,0.8-9.1,1.1-13.6
			c0.2-3.4,0.4-6.9,0.5-8.2l1-12.4l6-2.8l-1.3-0.3l2.1-18c0.5-4.6,0.8-9.3,0.8-13.7c0-4.8-0.1-9.5-0.5-13.2
			c-1.4-13-5.6-21.1-12.5-26c-8.4-5.9-21.6-8.9-38.9-10.4c-9.8-0.8-19.3-0.1-27.1,3c-5.7,2.2-10.5,5.8-13.7,11
			c-3.7,6.1-5.7,13.5-6.5,21.7c-0.9,9.3-0.3,19.6,1,30.1l1.1,8.5L493.5,459.2L493.5,459.2z M546,560.7c-0.9,1.8-2,3.5-3.2,5.1
			c-5.2,6.6-12.3,10.7-22,10.8l-5.2-1.8c-3.2,0.8-6.3,1.6-7,1.9c-2.3,0.7-4.6,1.4-6.8,2.4c-1.2,0.5-2.1,0.9-2.5,1.3
			c-0.8,0.7,0.1,1.4-0.7,3.8v0.1c-1.1,3.4,0.7-1.9-0.8,2.7c-0.4,1.2-1.5,6.3-2.7,12.5l-0.4,2.2h103c-1.4-7.5-2.8-14.2-3.4-16.4
			c-1-3.4-2.1-3.8-7.6-5.6c-0.7-0.2-1.6-0.5-6.2-2.1c-1.4-0.5-2.4-0.8-3.2-1.1l-1.5,1.2l-9.3-1.3c-10.2-1.4-16.5-7.3-20.3-15.4
			L546,560.7L546,560.7z M584.3,506.8l0.1-0.5C584.4,506.6,584.3,506.8,584.3,506.8L584.3,506.8z"/>
		<path class="st1" d="M480.7,447c-4.9,0.5-6.7,2-8.3,5.9c-1.5,3.6-1.7,8.4-0.9,12.4c1.8,9.2,5.1,12.8,14.3,14
			c0.1,7.8,0.9,16.7,1.8,24.3c1.3,10.6,2.1,12.2,8.9,17.2c5.6,4.1,32.1,18.3,32.8,19.8c0.1,7.2-2,14.9-8.7,15
			c7.3,5.3,13.3,9.7,24.1,10c9.7,0.3,19.6-4.8,24.6-10c-5.3-0.7-5.7-9.9-6-15.5c3.5-3.7,24.2-13.9,31.8-19.4c6-4.4,7.3-7.2,8.5-16.8
			c1-8,1.2-15.8,1.8-23.8l1.1-0.5c0.8-0.3,0.7-0.3,1.6-0.5c6.8-1.7,9.7-4.8,11.5-13.6c1.1-5.1,0.4-13-3.6-16.6
			c-2-1.7-4.2-1.5-5.6-2.2C612.1,368,475.3,365.2,480.7,447z"/>
		<path class="st1" d="M474,450c-0.6,0.8-1.1,1.8-1.6,3c-1.5,3.6-1.7,8.4-0.9,12.4c1.8,9.2,5.1,12.8,14.3,14
			c0.1,7.8,0.9,16.7,1.8,24.3c0.5,3.8,0.9,6.5,1.5,8.5c2.4,10.5,9.4,16.2,18.3,21.9c6.1,4,13.5,7.9,21.7,10.7
			c-0.7,5.7-3.1,10.8-8.5,10.8c-2-1.6-0.9-2-3.1-2.4c-1.7-0.3-13.1,2.9-15,3.4c-6.1,1.9-12.2,4-16.5,7.5c-4.4,3.6-5.9,9.5-8.1,16
			c-1.9,5.6-7.6,36.9-8.4,42.6h153.4c-1.4-9.2-6.6-37-8.3-43.2c-4.6-16.1-7.8-15.3-27.4-21.9c-13.8-4.6-13.5-5.7-17.8-2
			c-3.8-0.5-5.1-5.3-5.6-10c13-4.2,25.5-12.6,34-20c5.7-5,6.2-9.4,8.1-18c-0.3-3.2-0.7-3.9-2-4.9c0.9-7.5,1.1-15,1.7-22.6l1.1-0.5
			c0.8-0.3,0.7-0.3,1.6-0.5c6.8-1.7,9.7-4.8,11.5-13.6c1.1-5.1,0.4-13-3.6-16.6c-0.9-0.8-1.9-1.2-2.8-1.5
			c1.2-10.2,1.2-23.1,0.3-31.6c-4.2-39.2-29-51.6-70.5-55.2c-23.9-2.1-48.1,4-60.4,24C471.3,402.7,471.1,426.8,474,450z"/>
		<path class="st13" d="M513.9,527.3c2.8,15,8,22.8,24.5,24.4c17.3,1.7,32.1,2.2,39.8-10.2c4.7-7.6,8.3-31.2,6.7-42.1
			c-1.9-13.8-18.1-13.3-35.5-15.6l0.2,10.2c19.3,0.4,33.6-0.5,26.8,22.5c-2.3,7.8-3.3,13.5-10.1,16.8c-6.6,3.2-14.5,0.1-17-5.3
			l-2,1.6c-3.1,2.4-6.3,5.5-11.5,5.9c-20.1,1.7-19.9-32.8-18.4-35.5c2.7-4.9,17.3-6.9,23.6-7.3c4.1-0.3,0.2,1.2,5.4-0.1
			c-0.2-4.5-0.9-3.9-0.4-8.2l1.1,0.7c-9.6-1.1-29.4,2.3-33.8,8.7c-4.9,7.1-1.9,18.9-0.5,26.5C513.1,522.1,513.3,524.3,513.9,527.3z"
			/>
	</g>
	<g>
		<g>
			<path class="st0" d="M811.7,467.6c0,0.2,0,0.5-0.1,0.7c-0.1,1,0,2,0.1,2.9c0.3,1.7,0.1,2.2,0.2,2.3c0.5,0.5-0.2-0.6,0.7-0.5
				c7.7,1.1,13.3,8,13,15.8c0,2.7,0.2,6.1,0.5,9.8c0.3,4.4,0.7,8.8,1.2,12.8c0.4,3.7,0.6,5.6,0.8,5.8c0.2,0.4,0.5,0.2,2,1.3
				c2,1.6,8.6,5.6,14.8,9.4l0,0c9.8,6,19.1,11.7,21.4,17.2c0.9,2.2,1.3,4.6,1.1,6.8c0,5.5-0.9,11.2-3.1,16
				c-3,6.6-7.8,11.5-14.9,13.2c-0.2,0.1-0.5,0.2-0.7,0.3c2.9,0.9,5.6,2.6,7.6,5.3l0,0l0.2,0.2l0,0c0.1,0.1,0.1,0.2,0.2,0.2l0,0
				l0.2,0.2c0.2,0.2,0.3,0.4,0.5,0.7l0.1,0.1l0,0l0.2,0.2c0.1,0.1,0.2,0.2,0.3,0.3l0.2,0.2l0,0l0.1,0.1l0,0l0.2,0.3l0,0l0.1,0.1l0,0
				l0,0l0,0l0.1,0.1h0l0.1,0.1c0.1,0.1,0.2,0.2,0.3,0.3l0.3,0.2l0,0l0.1,0.1l0.1,0l0.3,0.3l0,0l0.2,0.1l0.1,0.1
				c0.1,0.1,0.2,0.2,0.3,0.2l0.2,0.1l0,0l0.3,0.2l0,0l0.1,0.1l0,0l0,0l0.3,0.2l0.2,0.1l0,0l0.1,0.1l0.1,0.1c0.2,0.1-0.2-0.1,0.2,0.1
				l0,0l0.2,0.1c0.2,0.1,0.4,0.2,0.5,0.3l0.4,0.2l0,0c0.1,0.1,0.2,0.1,0.3,0.2l0,0c0.2,0.1-0.2-0.1,0.2,0.1c0.1,0.1,0.3,0.1,0.4,0.2
				l0.3,0.1l0,0l0,0l0,0c0.4,0.2,0,0,0.3,0.1l0.2,0.1l0,0l0,0l0,0c0.2,0.1,0.1,0,0,0l0,0c0.9,0.3-0.4-0.1,0.2,0.1l0.3,0.1l0,0l0,0
				l0,0c0.1,0,0,0,0.3,0.1c0.1,0,0.3,0.1,0.4,0.1c0.1,0,0.2,0.1,0.3,0.1l0,0l0,0l0,0l0,0c1.1,0.3,0.4,0.1,0,0l0.1,0l0.2,0.1
				c0.2,0,0.1,0,0.2,0l0,0l0,0l0,0l0.2,0l0.1,0c-0.1,0-0.1,0,0.2,0l0.1,0c-0.1,0-0.1,0,0.3,0c0.1,0,0.2,0,0.3,0.1l0,0
				c0.4,0,0.5,0.1,0.5,0.1l0.4,0c0.7,0.1-0.3,0,0.2,0l0,0.1c6.4,1.6,10.9,7.3,11.4,13.9l65.8,0c-3.5-11.9-8.1-12.9-18.3-15.2
				c-6.6-1.4-14.5-3.2-24.5-6.3c-3,0.7-6.3,0.4-9.4-1c-0.3-0.1-0.6-0.3-0.8-0.4l-1.2-0.6c-3.3-1.6-6.3-3.1-8.7-4.7
				c-12.3-5-13-19.7-13.3-29.1h0l0,0c-0.2-4.2,1.3-8.1,3.9-11l0,0c3.4-3.9,11-8.4,18.9-13.1c5.5-3.3,11.2-6.7,13.7-8.7
				c0.9-0.7,1.3-0.9,1.3-1c0.3-0.6,0.6-2.5,1-5.7c0.6-5.4,0.9-10.4,1.2-15.4c0.2-3.1,0.4-6.2,0.5-8.2c0.4-6.1,4.3-11.2,9.5-13.3l0,0
				c0.4-0.2,0.9-0.4,1.4-0.6l0,0l0.3-0.1c0.9-0.3,1.1-0.4,2.3-0.7c0.1-0.5,0.2-1.2,0.4-2.1c0.2-0.8,0.2-2,0-3.3
				c-0.1-0.5,0.1-0.4,0-0.6c-2-3.2-2.7-6.9-2.3-10.4c0.4-4.6,1.1-8.7,1.9-12.9c0.8-4.8,1.7-9.7,2-13.3c0.5-5.6,1-8.6,1.3-10.9
				c0.2-1.5,0.7-0.4,0.5-1.4c-0.3-1.7-0.5,0.7-2.4-1.6l-1-1.3c-3.1-3.7-4.2-8.5-3.3-13c-2.4-3.8-5.8-7.5-12.9-10.2
				c-0.3-0.1-0.6-0.2-0.9-0.4l0,0l-13.7-6.3c-2.7-1.2-4.9-3.2-6.4-5.6l-0.7-0.1c-2.1,0-4.3-0.4-6.5-1.2c-0.5-0.2-0.9-0.3-1.4-0.5
				c-2.3-1.1-4.2-2.6-5.7-4.5c-2.3-0.2-4.2-0.2-5.3-0.3l0,0c-3.1,0-5.8,0.1-8.5,0.5c-2.3,0.4-4.4,1-6.7,1.9
				c-1.1,0.4-2.2,1.5-3.3,2.6c-2.1,2-4.3,4.1-8.1,6.4c-2.5,1.5-5.3,2.2-8,2.1c-5.1-0.1-8.4,0.1-10.5,0.9c-1,0.4-2.1,1.3-3.4,2.9
				c-1.7,2.1-1.7,2.6-1.8,3c-0.3,2.5-0.6,4.6-2.3,7.9c-1.1,2-2.1,3.5-3.1,4.7c-0.1,5.1-1.9,7.8-4,11c-0.1,0.1-0.1,0.2,1.4,6.7
				c0.9,3.9,1.1,4.8,1.4,5.7c1.8,7,4,15.9,4.7,22.4C817.3,457.8,815.6,463.7,811.7,467.6L811.7,467.6z M832.8,586.6
				c-2.1,0.6-4.2,1.2-6.4,1.8c-2.6,0.7-5.3,1.5-9.3,2.5c-2.4,0.6-0.2,0-2.9,0.7c-6.9,1.7-18.3,4.5-19.6,6.5
				c-1.8,2.6-3.3,6.3-4.4,10.4l44.6,0c-0.1-0.2-0.3-0.3-0.4-0.5c-0.4-0.4-0.7-0.8-1.1-1.2l-0.2-0.2l0,0l-0.1-0.1
				c-0.2-0.2-0.4-0.5-0.6-0.8l-0.2-0.2l0,0C828.2,599.6,828.6,591.9,832.8,586.6L832.8,586.6z M864.2,593.3L864.2,593.3L864.2,593.3
				L864.2,593.3z M864.2,593.3L864.2,593.3L864.2,593.3C864.3,593.4,864.3,593.3,864.2,593.3L864.2,593.3L864.2,593.3z M864.8,593.5
				L864.8,593.5L864.8,593.5L864.8,593.5L864.8,593.5L864.8,593.5z M864.8,593.5L864.8,593.5C864.1,593.3,864.5,593.4,864.8,593.5
				L864.8,593.5z M867.8,594.3L867.8,594.3L867.8,594.3L867.8,594.3L867.8,594.3z M863.5,624.8L863.5,624.8L863.5,624.8L863.5,624.8
				L863.5,624.8z M868.4,594.4l0.1,0l0.1,0l0,0l0.1,0l0,0l0.3,0l0,0C868.8,594.4,868.6,594.4,868.4,594.4L868.4,594.4L868.4,594.4z
				 M869,594.5C869.2,594.5,869.2,594.5,869,594.5C869.2,594.5,869.2,594.5,869,594.5z"/>
		</g>
		<path class="st1" d="M805.9,455.1c-4.7,0.6-6.4,2-8,6.1c-1.4,3.7-1.7,8.6-0.9,12.8c1.7,9.4,4.9,13.1,13.7,14.3
			c0.1,8,0.8,17.1,1.7,24.9c1.2,10.8,2.1,12.5,8.5,17.6c5.4,4.2,30.9,18.7,31.5,20.3c0.1,7.4-1.9,15.2-8.4,15.3
			c1.4,1-25.8,9.2-24.5,10.2c5.4,4,39.1,24.7,47.5,25c6.7,0.2,41.6-9.2,46.7-19.9c2-4.2-24.2-13.8-22.9-15.3
			c-5.1-0.7-5.5-10.2-5.7-15.9c3.4-3.8,23.3-14.2,30.6-19.8c5.8-4.5,7-7.3,8.2-17.2c1-8.2,1.2-16.2,1.8-24.4l1-0.5
			c0.7-0.3,0.7-0.3,1.5-0.5c6.6-1.7,9.3-4.9,11.1-14c1-5.2,0.4-13.3-3.5-17c-1.9-1.8-4-1.6-5.3-2.2
			C932.1,374.2,800.7,371.4,805.9,455.1z"/>
		<path class="st1" d="M801.2,456.5c-1.5,0.9-2.4,2.4-3.3,4.7c-1.4,3.7-1.7,8.6-0.9,12.8c1.7,9.4,4.9,13.1,13.7,14.3
			c0.1,8,0.8,17.1,1.7,24.9c1.2,10.8,2.1,12.5,8.5,17.6c5.4,4.2,30.9,18.7,31.5,20.3c0.1,7.4-1.9,15.2-8.4,15.3
			c0.5,0.4-2.8,1.7-7.1,3.3c-7.8,1.7-15.5,4.1-23.5,6.2c-8.4,2.2-26.1,5.9-31.2,13.4c-6,8.9-9.2,23-9.5,34.5l95.6,0.1l96.4,0
			c-8.3-54-15.4-36.7-64.8-54.4c0.7,2.3,1.5-0.2,0.4,2.3c-5.3-2.6-10.1-4.9-9.5-5.5c-5.1-0.7-5.5-10.2-5.7-15.9
			c3.4-3.8,23.3-14.2,30.6-19.8c5.8-4.5,7-7.3,8.2-17.2c1-8.2,1.2-16.2,1.8-24.4l1-0.5c0.7-0.3,0.7-0.3,1.5-0.5
			c6.6-1.7,9.3-4.9,11.1-14c0.9-4.5,0.5-11.1-2.1-15.3c0.7-7.5,3.1-17.7,4-26.7c1.8-19.1,4.6-14.8-5.1-26.6h4.5
			c-6.2-8.7-7.7-20.2-26.9-27.6l-13.7-6.3l10.6,2.3c-7-6.1-13.6-7.9-25.1-9.8c-1.7-3.5-0.9,2.3,0.5-1.1c1-2.3,2,1.2,0.3-1.4
			c-2.1-3.1-14.4-3.5-18.1-3.5c-8.1-0.1-14.1,0.6-21,3.5c-6.4,2.6-8,6.7-13.5,10c-14.2-0.3-19.7,1.8-25.9,9.4
			c-6.5,8-4.5,11-5.8,13.4c-2.4,4.5-5.8,3.9-5,9.8c0.9,6.3-6.7,3.5-2.1,23.4c1.6,7.1,5.8,21.8,5.9,28.1
			C800.9,455.7,801,456,801.2,456.5L801.2,456.5z M844.3,596.1c0.1,0.2,0.2,0.3,0.4,0.5C844.6,596.4,844.4,596.2,844.3,596.1
			L844.3,596.1z M844.9,596.9c0.1,0.1,0.2,0.3,0.3,0.4C845.1,597.1,845,597,844.9,596.9L844.9,596.9z M846.1,598.3
			c0.1,0.1,0.2,0.3,0.4,0.4C846.4,598.6,846.2,598.5,846.1,598.3L846.1,598.3z M846.7,599c0.1,0.2,0.3,0.3,0.4,0.5
			C847,599.4,846.9,599.2,846.7,599L846.7,599z M847.4,599.8c0.2,0.2,0.3,0.3,0.5,0.5C847.7,600.1,847.6,600,847.4,599.8
			L847.4,599.8z M848.1,600.5c0.2,0.2,0.3,0.3,0.5,0.4C848.4,600.8,848.3,600.6,848.1,600.5L848.1,600.5z M848.7,601.1
			c0.2,0.2,0.3,0.3,0.5,0.5C849.1,601.5,848.9,601.3,848.7,601.1L848.7,601.1z M849.5,601.8c0.2,0.2,0.4,0.3,0.6,0.5
			C849.8,602.1,849.7,602,849.5,601.8L849.5,601.8z M850.2,602.5c0.2,0.2,0.4,0.3,0.6,0.5C850.6,602.8,850.4,602.6,850.2,602.5
			L850.2,602.5z M851,603.1c0.2,0.2,0.4,0.3,0.6,0.5C851.4,603.4,851.2,603.3,851,603.1L851,603.1z M851.8,603.7
			c0.2,0.2,0.4,0.3,0.7,0.5C852.2,604,852,603.8,851.8,603.7L851.8,603.7z M852.6,604.3c0.2,0.2,0.5,0.3,0.7,0.5
			C853,604.6,852.8,604.4,852.6,604.3L852.6,604.3z M853.4,604.9c0.2,0.2,0.5,0.3,0.7,0.5C853.9,605.2,853.7,605,853.4,604.9
			L853.4,604.9z M854.3,605.4c0.2,0.2,0.5,0.3,0.7,0.4C854.8,605.7,854.5,605.6,854.3,605.4L854.3,605.4z M855.1,605.9
			c0.2,0.1,0.5,0.3,0.7,0.4C855.6,606.2,855.4,606.1,855.1,605.9L855.1,605.9z M856,606.4c0.3,0.1,0.5,0.3,0.8,0.4
			C856.5,606.7,856.3,606.5,856,606.4L856,606.4z M857,606.9c0.3,0.1,0.5,0.3,0.8,0.4C857.5,607.1,857.2,607,857,606.9L857,606.9z
			 M857.9,607.3c0.3,0.1,0.6,0.2,0.9,0.4C858.5,607.6,858.2,607.5,857.9,607.3L857.9,607.3z M858.9,607.7c0.3,0.1,0.6,0.2,0.9,0.3
			C859.4,608,859.2,607.9,858.9,607.7L858.9,607.7z M859.8,608.1c0.3,0.1,0.6,0.2,0.9,0.3C860.4,608.3,860.1,608.2,859.8,608.1
			L859.8,608.1z M860.9,608.5c0.3,0.1,0.6,0.2,0.9,0.3C861.4,608.6,861.2,608.6,860.9,608.5L860.9,608.5z M861.9,608.8
			c0.3,0.1,0.6,0.2,0.9,0.2C862.5,608.9,862.2,608.9,861.9,608.8L861.9,608.8z M863,609c0.3,0.1,0.6,0.2,1,0.2
			C863.6,609.2,863.3,609.1,863,609L863,609z M864,609.3c0.3,0.1,0.7,0.1,1,0.2C864.6,609.4,864.3,609.3,864,609.3L864,609.3z
			 M865.1,609.5c0.3,0.1,0.6,0.1,1,0.1C865.8,609.6,865.4,609.5,865.1,609.5L865.1,609.5z M866.3,609.7c0.3,0,0.7,0.1,1,0.1
			C866.9,609.7,866.6,609.7,866.3,609.7L866.3,609.7z M867.4,609.8c0.4,0,0.7,0.1,1.1,0.1C868.1,609.8,867.8,609.8,867.4,609.8z"/>
		<path class="st3" d="M884.9,409c13.1,0,25.1,4.4,33.4,12.2c6.7,6.4,2.2,12.9,1.4,23.5c-0.4,5.2,2.1,6,3.4,10.4
			c2.4,8.2,1.7,15.9,1.9,24.6c7.2-1.4,8.7-12.8,12.2-19.5c0.5-7.6,3.2-18.5,4.1-28.2c1.8-19.1,4.6-14.8-5.1-26.6h4.5
			c-6.2-8.7-7.7-20.2-26.9-27.6l-13.7-6.3l10.6,2.3c-7-6.1-13.6-7.9-25.1-9.8c-1.7-3.5-0.9,2.3,0.5-1.1c1-2.3,2,1.2,0.3-1.4
			c-2.1-3.1-14.4-3.5-18.1-3.5c-8.1-0.1-14.1,0.6-21,3.5c-6.4,2.6-8.1,6.7-13.5,10c-14.3-0.3-19.7,1.8-25.9,9.4
			c-6.5,8-4.5,11-5.8,13.4c-2.4,4.5-5.8,3.9-5,9.8c0.9,6.3-6.7,3.5-2.1,23.4c1.6,7.1,5.8,21.8,5.9,28.1c0.4,0.6,5.6,16.5,10.6,24.2
			l0.6-2c1.6-7,1-18.7,3.1-23.5c2.6-6.3,4.2-5.3,2.6-13.5c-0.8-4.1-2.6-10.7-1.3-15c4.4-14.9,36.6-18.9,53-17L884.9,409z"/>
		<path class="st4" d="M801.6,417.4c-1.6-0.9,5.3-36.6,47-41C847.9,376.1,809,391.3,801.6,417.4z"/>
		<path class="st14" d="M772.8,623.8l95.6,0.1l96.4,0c-8.3-54-15.4-36.7-64.8-54.4c0.8,2.5,1.7-0.7,0.1,3c2.3,6.4-5.3,21-8.9,25.2
			c-6.5,7.4-10.8,9.5-22.7,12.2c-25.1-1.4-34.8-31.6-30.9-37.8c-1.4-1.5-1.2,0.6-0.2-2.5c-8,1.7-15.8,4.2-24,6.3
			c-8.4,2.2-26.1,5.9-31.2,13.4C776.3,598.2,773,612.3,772.8,623.8z"/>
		<path class="st7" d="M868.5,609.9c11.9-2.7,16.2-4.8,22.7-12.2c3.6-4.1,11.2-18.8,8.9-25.2c-3.8,8.1-7.2,11.8-12.6,16.6
			c-3.5,3-12.8,9-18.8,8.6c-13.4-1-27.5-15.2-31-25.7C833.6,578.3,843.4,608.5,868.5,609.9z"/>
		<path class="st4" d="M839.3,599.2c-0.6,0.5,5.2,14.7,22.8,12.9C861.8,612.3,844.5,609.3,839.3,599.2z"/>
	</g>
	<g>
		<g>
			<path class="st0" d="M171.8,459.8c0,0.6,0.1,1.2,0.2,1.7c0.3,1.7,0.1,2.1,0.2,2.3c0.5,0.5-0.2-0.6,0.7-0.5
				c7.7,1,13.3,7.8,13,15.4c0,2.7,0.2,6,0.5,9.5c0.3,4.3,0.7,8.6,1.2,12.5c0.4,3.6,0.6,5.4,0.8,5.7c0.2,0.3,0.5,0.2,2,1.3
				c1.7,1.3,8.4,5.3,14.9,9.1c0.4,0.2,0.7,0.5,1.1,0.7c9.4,5.6,18.2,10.9,20.3,16.1c0.9,2.2,1.3,4.4,1.1,6.6c0,1.1,0,2-0.1,2.9
				c-0.1,1.1-0.2,2.4-0.5,3.9c-0.9,6.1-5.4,10.7-10.9,12.2c-1.6,3.2-3.9,5.7-7.4,9.5l-0.8,0.8c-1.9,2-4.1,3.4-6.5,4.1l0,0
				c-1.5,0.5-2.6,0.9-3.3,1.3c-0.5,0.3-1,0.7-1.4,1.1c-1.1,1.1-1.5,1.6-1.7,2c-1.5,2-2.3,3.1-5,4.8c-2.4,1.5-3.8,1.9-6.8,2.7
				c-0.6,0.2-1.5,0.4-3.2,0.9c-1,0.3-3,0.8-5.3,1.4c-10.9,2.9-32.9,8.8-32.9,8.9l-0.7,6.7c-0.1,1.1-0.2,2.3-0.4,3.4
				c7.5,0,15.6-0.1,23.7-0.3c17.4-0.3,34.6-0.6,45.8,0.3l0,0l17,0l19.3-0.3c0.4,0,0.7,0,1.1,0l0,0c11.4,0.7,43.8,0.5,65.8,0.3l1.4,0
				c-0.1-1-0.2-2-0.3-3c-0.4-3.9-0.8-7-1.1-7.9c0,0-23.5-6-33.6-8.6c-2.4-0.6-4.3-1.1-4.5-1.2c-12.5-3.5-15.1-7.4-18-11.7
				c0,0,0,0-4.2-1.3c-3.8-1.2-6.8-3.7-8.6-6.9c-0.6-1-1.2-1.8-1.9-2.6c-0.1-0.1-0.2-0.2-1.7-2.3c-1.5-2-2.5-3.7-3.3-5.3
				c-2.8-1.7-5.1-4.4-6.3-7.8c-0.4-1.2-0.7-2.5-0.8-3.7l0,0c-0.1-1-0.2-3.3-0.3-5.3c0-0.2,0-0.3,0-0.5v-0.1v-0.2
				c0-3.8,1.5-7.3,3.9-9.9l0,0c3.4-3.8,11-8.2,18.9-12.8c5.5-3.2,11.2-6.6,13.7-8.5c0.9-0.7,1.3-0.8,1.3-0.9c0.3-0.6,0.6-2.4,1-5.6
				c0.6-5.2,0.9-10.1,1.2-15.1c0.2-3.1,0.4-6.1,0.5-8c0.4-6,4.3-10.9,9.5-13l0,0c0.4-0.2,0.9-0.4,1.4-0.6l0,0l0.3-0.1
				c0.8-0.3,1-0.4,2.3-0.7c0.1-0.5,0.3-1.2,0.4-2.1c0.2-0.8,0.2-1.8,0.1-2.8c-5.2-3.7-7.6-10.5-5.5-16.9c0.3-0.9,0.7-1.8,1.1-2.6
				l0-0.1c0.7-1.5,1.4-2.9,2.4-4.6c0.8-1.7,1.4-3,2.1-4.1c0.3-3.4,1-4.6,2.7-7.7c0.3-0.5,0.4-0.6,0.5-0.9c0.8-1.9,1.1-4.4,0.9-7.1
				c-0.2-2.5-1-4.9-2.3-6.7c-0.6-0.8-0.9-1-1.5-1.3c-1.2-0.6-2.5-1.4-4.7-2.7c-5.1-3.2-7.6-9-6.9-14.6c-2.2-0.9-4.8-1.4-7.3-2
				c-3.9-0.8-7.6-1.6-12-3.6c-3.1-1.3-5.4-3.6-7-6.3c-4.1-1.1-9.1-1.9-15.5-1.7c-4.4,0.6-7.9,1.2-10.9,2.1c-2.8,0.8-5.4,2-8.4,3.8
				l-0.3,0.2c-4,2.5-5.6,3.4-9.5,3.9c-2.6,0.3-4.1,0.1-6.4-0.4c-0.6-0.1-1.4-0.3-2.6-0.4c-0.1,0-0.2,0-0.3,0
				c-1.2-0.1-2.3-0.1-3.4,0.1c-0.9,3.3-2.8,6.2-5.6,8.2l0,0l-5.1,3.8c-0.5,0.4-1,0.9-1.6,1.5c-0.4,0.4-0.7,0.7-0.8,0.8
				c-0.5,0.6-1,1.5-1.4,2.6c-0.6,1.3-1.1,2.8-1.5,4.4c-0.3,1.2-0.5,2.7-0.6,4.3c-0.1,1.6,0,3.3,0.1,4.9l1.6,5.1
				c0.2,0.3,0.5,0.6,0.7,0.9c2.3,3,3.3,6.7,3,10.2c0.2,0.3,0.3,0.5,0.5,0.8c1.2,2.3,1.7,4.8,1.6,7.2l0,0c0,1,0,1.9,0,2.7
				c0,0.5,0,1.3,0.1,2.6C181.5,451.5,177.6,457.4,171.8,459.8z"/>
			<path class="st1" d="M166.1,445.8c-4.7,0.5-6.4,2-8,5.9c-1.4,3.6-1.7,8.4-0.9,12.4c1.7,9.2,4.9,12.8,13.7,14
				c0.1,7.8,0.8,16.7,1.7,24.3c1.2,10.6,2.1,12.2,8.5,17.2c5.4,4.1,30.9,18.3,31.5,19.8c0.1,7.2-1.9,14.9-8.4,15
				c7,5.3,12.8,9.7,23.2,10c9.4,0.3,18.9-4.8,23.7-10c-5.1-0.7-5.5-9.9-5.7-15.5c3.4-3.7,23.3-13.9,30.6-19.4
				c5.8-4.4,7-7.2,8.2-16.8c1-8,1.2-15.8,1.8-23.8l1-0.5c0.7-0.3,0.7-0.3,1.5-0.5c6.6-1.7,9.3-4.8,11.1-13.6c1-5.1,0.4-13-3.5-16.6
				c-1.9-1.7-4-1.5-5.3-2.2C292.4,366.8,160.9,364.1,166.1,445.8z"/>
			<path class="st1" d="M166.1,445.8c-4.7,0.5-6.4,2-8,5.9c-1.4,3.6-1.7,8.4-0.9,12.4c1.7,9.2,4.9,12.8,13.7,14
				c0.1,7.8,0.8,16.7,1.7,24.3c1.2,10.6,2.1,12.2,8.5,17.2c5.4,4.1,30.9,18.3,31.5,19.8c0,1.8-0.1,3.6-0.3,5.3
				c-2.6-1.4-5.2-2.4-8-2.1c-0.7,10.2-2.1,11.2-7.3,16.7c-4.9,1.5-8.2,3.4-11,6.3c-5.8,5.9-1.1,3.8-10.1,6.4c-9.4,2.7-44.6,11-48,19
				c-1.5,3.6-3.2,25.3-3.3,30.7c24.5,1,64.2-1.3,84.5,0.3l18.4,0l19.3-0.3c15.3,0.9,68.1,0.2,84.2,0.2c-0.2-6.4-1.5-25.4-3.1-30.4
				c-2.9-9-40.6-17.5-48.4-19.7c-14.7-4.1-3.9-7.4-21.8-12.9c-1.8-2.9-2.6-3.7-4.4-6.2c-4.1-5.7-1.1-4.7-2.5-10c-1.2-0.3-3,0-5,0.7
				c-0.1-1.7-0.2-3.3-0.3-4.7c3.4-3.7,23.3-13.9,30.6-19.4c5.8-4.4,7-7.2,8.2-16.8c1-8,1.2-15.8,1.8-23.8l1-0.5
				c0.7-0.3,0.7-0.3,1.5-0.5c6.6-1.7,9.3-4.8,11.1-13.6c1-5.1,0.4-13-3.5-16.6c-0.8-0.7-1.6-1.1-2.3-1.3c0.8-1.6,1.5-3.2,2.5-4.8
				c1.2-2.8,1.5-2.6,4.4-4c-0.2-7.6-1.7-4.1,0.8-8.6c0.1-0.1,0.2-0.3,0.3-0.5c3.9-8.3,3.4-21-2.8-29.4c-3.7-5-4.9-4.4-10.3-7.8
				l6.2,1.2c-1.4-6.9-6.7-12.2-11.8-15.2c-8-4.7-15.9-4.1-22.6-7.1l8-1.2c-7.3-1.3-16.4-9-37.7-8.1c-11.1,1.4-17.7,2.9-26.1,8.1
				c-4.8,3-2.8,1.8-9.5,1.2c-13.9-1.4-27.4,6.9-28.2,15.4c1.7-2.1,4.7-3.6,8.5-4.3l-5.6,4.2c-1.3,1.1-3.6,3.3-4.7,4.7
				c-2.7,3.4-4.4,7.9-5.6,12.3c-1.3,4.8-1.4,10.8-0.8,15.9l3.2,10.2c2.1,3.3-0.9-1.9,2,1.9c-2.2,9.6,0.7,6.1,2,8.8
				C165.9,441.3,165.9,443.5,166.1,445.8z"/>
			<path class="st6" d="M231.6,427.7l0.4,1.8c8.4,4.6,7,6,12.2,7.9l-1.9-15.6l4.8,3.1c4.8,3.1,10.6,6.2,17.1,7.3l-2.5-6.1
				c0.9,0.4,0.4,1,3.2,2.5c4.4,2.3,10.3,3.8,14,8.2c4.9,5.9,6.2,13.9,5.3,21.8c3.1-2.1,5.1-5.1,7.1-8c2.3-3.4,3-6.1,4.9-9.1
				c1.2-2.8,1.5-2.6,4.4-4c-0.2-7.6-1.7-4.1,0.8-8.6c0.1-0.1,0.2-0.3,0.3-0.5c3.9-8.3,3.4-21-2.8-29.4c-3.7-5-4.9-4.4-10.3-7.8
				l6.2,1.2c-1.4-6.9-6.7-12.2-11.8-15.2c-8-4.7-15.9-4.1-22.6-7.1l8-1.2c-7.3-1.3-16.4-9-37.7-8.1c-11.1,1.4-17.7,2.9-26.1,8.1
				c-4.8,3-2.8,1.8-9.5,1.2c-13.9-1.4-27.4,6.9-28.2,15.4c1.7-2.1,4.7-3.6,8.5-4.3l-5.6,4.2c-1.3,1.1-3.6,3.3-4.7,4.7
				c-2.7,3.4-4.4,7.9-5.6,12.3c-1.3,4.8-1.4,10.8-0.8,15.9l3.2,10.2c2.1,3.3-0.9-1.9,2,1.9c-2.6,11.4,1.9,4.4,2.6,11.1
				c3.4,4.9,2.8,6.5,8.6,11.9c3.4,3.1,2.8,4,5.3,5.7c0.3-11.2-2.7-11.6,5-21c9.4-11.5,4.5-15.7,9.8-20.1c8,1.7,9.3,12,27.2,17.8
				c-2.4-5.3-6.6-13.2,1.5-16.2C226,422,227.9,425.9,231.6,427.7z"/>
			<path class="st4" d="M282.2,414.6c1.6-0.9-5.3-35.7-47-40C236,374.3,274.8,389.2,282.2,414.6z"/>
			<path class="st15" d="M246.7,621.8c15.3,0.9,68.1,0.2,84.2,0.2c-0.2-6.4-1.5-25.4-3.1-30.4c-2.9-9-40.6-17.5-48.4-19.7
				c-14.7-4.1-3.9-7.4-21.8-12.9c3.9,10.5-0.1,23.4-2.5,33.4L246.7,621.8z"/>
			<path class="st16" d="M209.1,622.1c-4.6-21.8-14-35-12-62.7c-4.9,1.5-8.2,3.4-11,6.3c-5.8,5.9-1.1,3.8-10.1,6.4
				c-9.4,2.7-44.6,11-48,19c-1.5,3.6-3.2,25.3-3.3,30.7C149,622.8,188.8,620.4,209.1,622.1z"/>
			<path class="st17" d="M227.4,622.1l19.3-0.3l8.4-29.4c2.4-10,6.4-22.9,2.5-33.4c-1.8-2.9-2.6-3.7-4.4-6.2
				c-4.1-5.7-1.1-4.7-2.5-10c-4.3-1.2-14.8,5.9-20.6,7.6c-11.6,1.6-17.6-8.5-25.8-7.7c-0.7,10.2-2.1,11.2-7.3,16.7
				c-2,27.7,7.4,41,12,62.7L227.4,622.1z"/>
		</g>
		<path class="st4" d="M206.3,550.2c-0.6,0.5,5.2,14.3,22.8,12.6C228.8,563,211.5,560.1,206.3,550.2z"/>
	</g>
	<g>
		<g>
			<path class="st0" d="M1132.8,789.4c-0.1,0.1-0.1,0.2-0.2,0.3c-0.1,0.3-0.1,0.7-0.2,1.3c-0.1,1.1,0,2.1,0.1,3
				c0.1,0.3,0.2,0.9,0.4,1.7c0.1,0.3,0.2,0.7,0.3,1.1c0.6,1.8,0.9,3.7,0.9,5.5c0.4,7.3,1.6,14.5,3.9,21.3
				c2.3,6.6,5.6,12.6,10.3,17.7c0.9,1,1.9,2,3.2,3.1c1,0.8,2,1.6,3.3,2.4c0.7,0.5,1.6,0.9,2.4,1.2c1.3,0.6,2.2,0.9,2.8,1.1
				c1.2,0.4,2.4,1,3.4,1.6l1.7,1l2,1.2c2.7,1.6,4.8,3.9,6.1,6.6c0.8,0,1.5,0,2.3,0.1c2.7,0.4,5.1,1.3,7.1,2.8c1.1,0.7,2,1.3,2.5,1.7
				c2.8,2.1,4.8,4.6,6,7.4c1,2.5,1.4,5.1,1.2,7.6c-0.1,6.1-1.2,12.5-4,17.8c-3.9,7.4-10.1,12.4-19.5,13.1c-3.9,0.3-7.5-0.8-10.4-2.9
				c-1.2,3.8-3.9,7.1-7.6,9.2c-0.6,0.3-1.2,0.6-1.8,0.9c-2.3,1.1-4.3,2.3-5.7,3.6c-0.4,0.4-0.6,0.6-0.6,0.7c0,0.7-0.1,1.4-0.3,2.1
				c5.5,0.3,10.9,0.4,16.4,0.5c12.4,0.2,25,0,38.1-0.5c6.5-0.2,31.2-1.6,50-3.3l3.1-0.3c-0.9-1.8-1.8-3.3-2.5-4.5l-1.7-0.4
				c-0.3-0.1-0.5-0.1-0.8-0.2c-1.8-0.5-3.3-1-5-1.5c-0.9-0.3-1.9-0.6-3.1-1c-8-2.5-12.6-10.5-11.1-18.5l0,0l0.1-0.5
				c-1.4,1.4-3.1,2.5-5.1,3.3c-6.6,2.8-14.1,0.8-18.5-4.4c-1.3-1.4-2.5-2.7-3.3-4c-2.2-3.2-3.5-6.7-3.7-10.5
				c-0.2-4.5,1.5-8.7,4.4-11.7l0,0l0.1-0.1c0.3-0.3,0.6-0.6,0.9-0.8l0,0l0,0c3.1-2.9,7.1-4.3,11.1-4.3c0.7-1.5,1.5-2.9,2.7-4.2
				c1.2-1.3,2.5-2.4,4-3.3l0,0l1.4-0.8c5.9-3.5,12-7,14.8-9.1c0.7-0.5,1.2-0.9,1.5-1.2c0.8-1.7,1.9-3.2,3.2-4.5
				c3.8-4.3,6.6-9.7,8.7-15.6c2.4-6.9,3.8-14.5,4.5-22.2c0.1-1.1,0.3-2.2,0.7-3.3l0,0c0.2-0.5,0.3-0.9,0.3-1.1
				c0.3-1.1,0.4-1.6,0.4-1.6c0.1-0.6,0.2-1.3,0.1-2.2c0-0.7-0.1-1.4-0.3-2c-0.4-1.6-0.6-3.2-0.5-4.8c0-3.4-0.4-9.4-1.1-15.5
				c-0.6-5.2-1.3-10.1-2-12.7c-1.2-4.4-2.1-6.8-3.3-10.2l-0.7-1.8c-0.2-0.6-0.4-1.1-0.6-1.5c-0.2-0.4-0.6-1.1-1-1.8l-6.5-9.9l0,0
				c-0.6-0.9-1.7-2-3-3.1c-2.1-1.8-4.5-3.5-6.6-4.7c-2-0.6-4.3-1.7-9.8-5.8c-0.1,0-2-0.8-3.6-1.4c-0.7-0.3-1.4-0.5-2.1-0.8
				c-4.5-1.8-12.1-2.5-20.2-2.1c-8.3,0.4-16.3,1.8-20.9,4.1c-2.5,1.2-4.1,1.9-5.5,2.4c-1.3,0.5-2.2,0.9-3.8,2.1
				c-3.8,2.8-4.9,3.6-5.6,4.2c-0.8,0.6-1.3,1-1.6,1.2c-0.5,0.6-1.4,1.7-4.6,5.1l0,0c-0.4,0.5-0.8,0.8-1.1,1.1
				c-0.2,0.3-0.3,0.6-0.5,1l0,0c-6.4,11.3-11,19.6-13,33.6c-0.3,2.1-0.6,4.5-0.9,7.5c-0.3,2.3-0.5,4.8-0.7,7.5
				C1134.4,785.4,1133.8,787.5,1132.8,789.4L1132.8,789.4z M1248.3,914.9C1247.9,914.7,1247.7,914.5,1248.3,914.9L1248.3,914.9
				L1248.3,914.9z M1248.3,914.9L1248.3,914.9c0.8,0.5,0.7,0.5,0.4,0.3L1248.3,914.9L1248.3,914.9L1248.3,914.9z"/>
			<path class="st0" d="M1155.1,727.4C1154.9,727.6,1154.8,727.7,1155.1,727.4C1155,727.5,1155.1,727.5,1155.1,727.4z"/>
			<path class="st1" d="M1126.3,777.2c-5.1,0.6-6.9,2.1-8.6,6.4c-1.5,3.9-1.8,9-1,13.4c1.8,9.9,5.2,13.7,14.7,15
				c0.1,8.4,0.9,18,1.8,26.1c1.3,11.4,2.2,13.1,9.2,18.4c5.8,4.4,33.2,19.6,33.9,21.3c0.2,7.7-2,16-9,16.1c3.3,2.5-39.9,4.9-40.7,27
				c-0.3,9.7,59.3,6.2,65.6,6.4c10.1,0.3,50.7-20.1,55.8-25.7c-5.5-0.8-36.3-18.4-36.5-24.4c3.6-4,25-14.9,32.8-20.8
				c6.2-4.7,7.6-7.7,8.8-18c1-8.5,1.3-17,1.9-25.6l1.1-0.5c0.8-0.3,0.8-0.3,1.6-0.5c7.1-1.8,10-5.1,11.9-14.6
				c1.1-5.5,0.4-14-3.8-17.8c-2-1.9-4.3-1.7-5.7-2.3C1262,692.3,1120.7,689.3,1126.3,777.2z"/>
			<path class="st18" d="M1118.1,802.1c0.9,18.4,5.6,36.3,18.6,50.2c2.9,3.1,5.8,5.7,9.7,8.2c3.1,1.9,6.2,3.1,8.7,3.9
				c1.3,0.8,2.6,1.5,3.9,2.3c-1.3,1.4-4.2,3.3-6.4,5.3c-10.1,9-12.1,13.8-10.2,29c0.4,0.3,0.7,0.6,1,1.1
				c-8.4,3.7-15.9,9.3-16.5,18.1c-1.8-0.2-1.7,1.2-2.3,3.2c-0.7,2.1-2,5.5-3,8.6h150c-0.9-8.1-6.8-20.2-10.3-25.5
				c-4.3-6.5-3.1-5.2-11.4-7.2c-1.7-0.4-4.9-1.5-7.9-2.5c0.4-2.1,0.9-4.2,0.7-7.3c-0.2-3.6-1.7-7.7-3.3-10c-1.3-2-4.5-5.5-5.8-6.9
				c-0.9-0.9-2.2-2.2-3.3-3.1c-1-0.8-2.5-1.5-3.5-2.4c6.7-3.9,13.9-8.1,17.7-11c3.2-2.4,5.1-4.4,6.3-7.1
				c11.3-12.3,16.2-30.2,17.9-47.8c0.4-1.3,0.8-2.8,1.1-4.4c0.7-3.3,0.7-7.6-0.3-11.4l0-0.4c0.1-7.6-1.7-25.6-3.6-32.8
				c-1.5-5.5-2.6-8.4-4.4-13.4c-0.8-2.2-1.8-4.1-2.9-6l-7-10.7c-3.4-5-9.8-9.7-14.7-12.7c-5.2-3.2-1.1,0.5-8.4-4.9
				c-2.1-1.5-6.9-3.2-9.2-4.2c-13.5-5.5-41.1-4.1-54.3,2.4c-5.5,2.7-6.9,2.4-11.8,6.1c-12.8,9.5-6.3,4.1-14.1,12.6
				c-0.6,0.6-1.4,1.1-2.2,2.2c-1.2,1.5-0.8,1.3-1.6,2.9c-7.2,12.9-12.5,22.2-14.9,39.4c-0.7,5.2-1.3,10.5-1.7,16
				c-0.2,0.5-0.5,1-0.7,1.6c-1.5,3.9-1.8,9-1,13.4C1117.1,798.9,1117.5,800.6,1118.1,802.1z M1211.7,876.9c0.9,1.5,2.1,2.6,3,4.8
				c-1.9-1.8-3.1-3.4-3.2-4.6C1211.6,877,1211.6,876.9,1211.7,876.9z M1167.9,890.8c0.1-6.3,1.4-8.5,4.3-12.4
				c0.1-0.1,0.2-0.3,0.3-0.4c0.3-0.5,0.5-0.6,0.5-0.7c0-0.2,0.1-0.4,0.2-0.7c0.1-0.3,0.2-0.7,0.2-1.1c1.7,1.1,2.7,1.9,2.9,2.2
				c0.1,7.5-1.9,15.6-8.5,16.1C1167.9,892.8,1167.9,891.8,1167.9,890.8z"/>
			<path class="st19" d="M1275.4,941.5c-1.8-9.2-11.1-30.1-14.4-35c-4.3-6.5-3.1-5.2-11.4-7.2c-3.3-0.8-12.5-4.4-14.6-3.8
				c-2.6,1.1-14.3,8.6-22.5,12.5c-27.2,12.9-55.4,17.3-85.8,12.2c-1.9-0.2-1.8,1.2-2.4,3.2c-0.6,1.7-3.9,12.1-5.9,18.1H1275.4z"/>
			<path class="st8" d="M1142.3,900.9c2.9,1.9,2.2,11.3,2.1,15c6.1-1.5,5.7-6.5,9.2-8.5c3.9,5.6-0.4,13-2.3,16.3
				c6.7-0.4,12.3-8.9,14-10.1c3.8-7,2.5-13.6,2.7-22.9c0.1-6.3,1.4-8.5,4.3-12.4c0.1-0.1,0.2-0.3,0.3-0.4c1.2-1.8-0.1,1,0.7-1.3
				c0.7-2,0.2-4.8-0.3-6.8c-4.3-2.1-13.8-9.4-16.7-12.9c-2.2-2.6-4-5.4-5.9-8.7c-1.8-3.1-3-7-4.6-10.7c-3.8-8.7-8.3-33.8-4.9-45.3
				c0.9-3.2,1.2-2.8,2.6-5.1c6.2-0.6,10.9,1.7,24-0.1c15.8-2.1,28.2-7.6,39.3-18.2c3.7-3.6,4.4-5.2,7.2-8.6c2-2.4-0.2-0.8,2.4-2.2
				c-0.5,4.2-2,5.4-3.5,8.6c-1.4,2.8-3.4,5.7-4,8c4.9-0.6,11.6-6.8,14.6-10.1c2-2.2,3.4-3.5,5.5-6.6c1.2-1.7,1.5-2.2,2.5-3.9
				c0.2-0.3,1.2-2,1.2-2l2-1.7c2.2,1.2,1.4,0.8,2.5,3.1c0.5,1.1,1.2,2.1,1.7,3.2c0.9,1.8,2.2,5.3,3.1,7.7c1.8,4.6,4,11.5,4.8,16.9
				c3.1,21.3,5.7,34.2-5.4,54c-2.6,4.6-5,8.8-8.7,12.8c-4.8,5.2-9.2,11.7-15.7,16.8c-1.9,1.5-4.6,3-6.3,4.4
				c-0.6,11.2,5.1,6.7,5.6,19.5c0.1,4-0.3,8.6-0.3,12.8c0.1,7,0.8,5.8,2.7,10.8c4.3,3.9,6.9,9.5,13.9,10.1
				c-0.6-1.5-6.1-8.9-2.4-15.8c3.2,0.5,0.8,0.7,4.2,4.7c1.6,1.9,2.9,3,5.3,3.4c0-3.9-1.5-11.7,1.9-14c0.1-4.1,1.5-6.5,1.2-11.3
				c-0.2-3.6-1.7-7.7-3.3-10c-1.3-2-4.5-5.5-5.8-6.9c-0.9-0.9-2.2-2.2-3.3-3.1c-1.2-1-3.2-1.8-4-3c0.9-2.2,5.4-2.6,11.5-6.4
				c5.8-3.6,5.6-4.1,9.9-7.9c17.6-15.8,21.8-43.8,22-67.2c0.1-7.6-1.7-25.6-3.6-32.8c-1.5-5.5-2.6-8.4-4.4-13.4
				c-0.8-2.2-1.8-4.1-2.9-6l-7-10.7c-3.4-5-9.8-9.7-14.7-12.7c-5.2-3.2-1.1,0.5-8.4-4.9c-2.1-1.5-6.9-3.2-9.2-4.2
				c-13.5-5.5-41.1-4.1-54.3,2.4c-5.5,2.7-6.9,2.4-11.8,6.1c-12.8,9.5-6.3,4.1-14.1,12.6c-0.6,0.6-1.4,1.1-2.2,2.2
				c-1.2,1.5-0.8,1.3-1.6,2.9c-7.2,12.9-12.5,22.2-14.9,39.4c-3.9,28.7-5.1,63.2,16.5,86.3c2.9,3.1,5.8,5.7,9.7,8.2
				c5.2,3.3,10.3,4.3,12.6,5.3c0.1,0.1,0.3,0.1,0.5,0.2c-0.8,1.4-4.3,3.6-7,6C1142.4,880.9,1140.4,885.7,1142.3,900.9z"/>
			<path class="st19" d="M1124.8,779.5c0.8-3.4,7.8-14.8,10.2-18.3c27-39.5,95.6-44.5,124,7.5c0.7,1.3,1.6,3.3,2.3,5
				c0.5,1.1,0.6,1.2,1,2.3l1.4,3c3.2-5.4-3.3-65.7-69.7-63.2c-20.7,0.8-36.8,7.5-48.7,18.2C1136.5,741.9,1124.1,763.1,1124.8,779.5z
				"/>
			<path class="st4" d="M1131.1,749.7c-1.7-1,5.7-38.4,50.5-42.9C1180.8,706.4,1139,722.4,1131.1,749.7z"/>
		</g>
		<path class="st4" d="M1198.1,920.8c0.6,0.7-5.6,14.1-24.5,7.6C1173.9,928.7,1192.5,930.1,1198.1,920.8z"/>
	</g>
	<g>
		<path class="st0" d="M1127.3,471.9c-0.1,1.1,0,2.1,0.1,3c0.3,1.8,0.1,2.3,0.3,2.5c0.5,0.5-0.2-0.7,0.8-0.5
			c8.6,1.2,14.7,8.6,14.4,17.1c0,3,0.2,6.6,0.5,10.5c0.3,4.7,0.8,9.5,1.3,13.9c0.5,4,0.7,6,0.8,6.3c0.2,0.4,0.6,0.2,2.2,1.4
			c1.9,1.4,9.3,5.9,16.4,10.1c0.4,0.2,0.8,0.5,1.2,0.8c10.4,6.2,20.1,12.1,22.5,17.8c1,2.4,1.4,4.9,1.2,7.4c0,6.6-1.3,13.6-4.4,19.2
			c-4.2,7.7-11,12.8-21,13.1c-0.7,0-1.4,0-2-0.1c-1.7,0.7-3.1,1.4-3.3,1.5c-5.3,3.3-7.4,4.4-9.5,5.4c-0.9,0.4-1.8,0.9-3.6,1.9
			c-0.6,0.3-1,0.7-1.5,1c-0.5,0.3-0.9,0.7-1.4,1c3.7,0,7.7-0.1,11.8-0.2c13.5-0.2,27.7-0.5,36.8,0.5c6.6,0.7,28.3,0.4,43.3,0.2
			l1.5,0l-9.2-5.2c-3.2-1.5-4.9-3.1-6.7-4.6c-0.3-0.3,0-0.2-0.3-0.3l-0.1-0.1c-0.1,0,0,0.1-0.3,0c-1.2-0.3-2.4-0.7-3.7-1.2
			c-1.8,0.1-3.6-0.1-5.3-0.5c-17.1-4.4-17.8-21.7-18.2-32.5c0-0.3,0-0.6,0-0.9l0-0.1c0-0.1,0-0.2,0-0.3l0-0.3l0-0.1
			c0.2-3.9,1.8-7.4,4.3-10.2l0,0c3.8-4.2,12.2-9.1,20.9-14.2c6.1-3.6,12.4-7.3,15.2-9.4c1-0.8,1.4-0.9,1.5-1
			c0.3-0.7,0.6-2.7,1.1-6.2c0.7-5.8,1-11.2,1.3-16.7c0.2-3.4,0.4-6.7,0.6-8.9c0.5-6.6,4.8-12.1,10.6-14.4l0,0c0.5-0.2,1-0.4,1.5-0.6
			l0,0l0.3-0.1c0.8-0.3,1.1-0.4,2.5-0.8c0.1-0.5,0.3-1.3,0.5-2.3c0.1-0.7,0.2-1.5,0.2-2.3c-6.7-3.4-10.5-11.1-8.7-18.7
			c0.5-1.9,1.2-3.7,2.3-5.3c0.2-1.1,0.4-2.3,0.7-3.8c0.2-0.9,1-3.7,1.8-6.3c1.4-4.9,2.6-9,2.7-18l0,0c0-5.1-0.1-8.3-0.6-11.1
			c-0.4-2.2-1.3-4.5-2.8-7.8c-0.3-0.2-0.5-0.4-0.8-0.6c-7.4-5.4-8.5-5.4-9.3-5.5c-4.4-0.2-7.9-0.3-13.9-4.6
			c-3.6-2.5-4.4-3.8-5.8-5.9c-3.2-3.8-14.5-5.4-27.5-5.6c-18.1-0.2-36.8,2.9-44,7.6l-8.2,6.2c-1.4,2.2-3.4,4.7-6.3,7.6
			c-2.2,2.2-3.8,6.5-4.7,11.5c-1.6,8.3-1.4,17.3-0.3,23.8c0.4,2.5,1.1,5,1.7,7.4c0.2,0.9,0.5,1.8,0.7,2.7c5,4.6,6.8,12,4,18.7
			C1132.1,467.7,1129.9,470.2,1127.3,471.9L1127.3,471.9z M1241.2,570.4c0.3,0.1,0.6,0.3,0.9,0.5l0.1-0.1
			C1242.1,570.8,1240.1,569.9,1241.2,570.4L1241.2,570.4L1241.2,570.4z M1257.1,474C1257.1,474,1257.1,474,1257.1,474
			C1257.3,474,1257.4,474,1257.1,474z"/>
		<path class="st1" d="M1120.9,457.6c-5.2,0.6-7.1,2.2-8.9,6.6c-1.6,4-1.8,9.2-1,13.8c1.9,10.2,5.4,14.2,15.2,15.5
			c0.1,8.6,0.9,18.5,1.9,26.9c1.3,11.7,2.3,13.5,9.4,19c5.9,4.6,34.2,20.2,34.9,21.9c0.2,7.9-2.1,16.5-9.3,16.6
			c7.7,5.8,14.2,10.7,25.6,11c10.4,0.3,20.9-5.3,26.2-11.1c-5.7-0.8-6.1-11-6.3-17.2c3.7-4.1,25.8-15.3,33.8-21.4
			c6.4-4.8,7.8-7.9,9.1-18.6c1.1-8.8,1.3-17.5,2-26.3l1.1-0.5c0.8-0.3,0.8-0.3,1.7-0.5c7.3-1.9,10.3-5.3,12.3-15.1
			c1.1-5.6,0.4-14.4-3.9-18.4c-2.1-1.9-4.4-1.7-5.9-2.4C1260.6,370.1,1115.2,367.1,1120.9,457.6z"/>
		<path class="st1" d="M1114.6,457.2c1.3,0.2,2.5,0.5,3.5,0.9c-3.1,0.9-4.6,2.6-6,6.1c-1.6,4-1.8,9.2-1,13.8
			c1.9,10.2,5.4,14.2,15.2,15.5c0.1,8.6,0.9,18.5,1.9,26.9c1.3,11.7,2.3,13.5,9.4,19c5.9,4.6,34.2,20.2,34.9,21.9
			c0.2,7.9-2.1,16.4-9.2,16.6c-0.3-1.4-0.3-0.5,0.1-2c-1.8,0.4-12,4.8-13.9,6c-7.7,4.8-7.3,3.9-12.6,7.1c-2,1.2-4,2.9-6.1,4
			c-6.1,3.2-3.7,1.8-7.9,13.8c-1.8,5.1-1,12.8-1.1,13.7h135.3c-0.1-0.3-0.1-0.6-0.3-1.1c-0.6-2.4,0.8-5.8-1.6-13.5
			c-4.2-13.4-2.9-10.8-8.3-13.1l-12.9-7.2c-2.2-1.1-3.5-3-6-4.5c-2.5-1.4-4.3-1.5-6.9-2.5c-2.5-1-4.1-2.7-7-3.6
			c0.2,0.4,0.8,1.6,1.1,2c-0.2,0.3-0.4,0.5-0.7,0.7c-5.3-1.2-5.7-11.1-5.9-17.1c3.7-4.1,25.8-15.3,33.8-21.4
			c6.4-4.8,7.8-7.9,9.1-18.6c1.1-8.8,1.3-17.5,2-26.3l1.1-0.5c0.8-0.3,0.8-0.3,1.7-0.5c7.3-1.9,10.3-5.3,12.3-15.1
			c1.1-5.6,0.4-14.4-3.9-18.4c-1.6-1.5-3.4-1.7-4.8-2c0.5-0.2,0.9-0.3,1.4-0.4c1.3-2.7,0.7-5,1.6-8.4c2.4-9.5,4.8-13.7,4.9-28.3
			c0.1-12.9-0.6-16.7-5.5-27.3c-2-4.4-1.9-3.1-5.6-5.8c-17.9-12.9-17.7-6.1-23.3-10.2c-1.6-1.1-1.3-1.3-2.4-2.6
			c-14.6-18.3-77.2-13-94.4-1.3l-11.6,8.7c-4.1,4.6,1.4,0.4-4.9,6.6c-11.1,11-12.2,35.4-9.8,49.9
			C1111.7,445.5,1114,451.2,1114.6,457.2z"/>
		<path class="st20" d="M1114.6,457.2c13.6,1.7,7.2,17.5,17.6,23.6c-4.4-39.5,1.1-33.3,36.7-40.6c19.2-3.9,45.9-13.1,56.8-22.6
			c2.8,3,16.2,20.6,18,25c4.6,11.5-1.9,32.8,0.7,38.3c9-4.8,3-20.5,16.9-23.8c1.3-2.7,0.7-5,1.6-8.4c2.4-9.5,4.8-13.7,4.9-28.3
			c0.1-12.9-0.6-16.7-5.5-27.3c-2-4.4-1.9-3.1-5.6-5.8c-17.9-12.9-17.7-6.1-23.3-10.2c-1.6-1.1-1.3-1.3-2.4-2.6
			c-14.6-18.3-77.2-13-94.4-1.3l-11.6,8.7c-4.1,4.6,1.4,0.4-4.9,6.6c-11.1,11-12.2,35.4-9.8,49.9
			C1111.7,445.5,1114,451.2,1114.6,457.2z"/>
		<path class="st4" d="M1119.6,417.6c-1.8-1,5.8-39.5,52-44.2C1170.7,373,1127.7,389.5,1119.6,417.6z"/>
		<path class="st21" d="M1121.8,620.3h135.3c-0.1-0.3,0.5-7-1.9-14.6c-4.2-13.4-2.9-10.8-8.3-13.1l-12.9-7.2c-2.2-1.1-3.5-3-6-4.5
			c-2.5-1.4-4.3-1.5-6.9-2.5c-2.5-1-4.1-2.7-7-3.6c0.2,0.4,0.8,1.6,1.1,2c-3,3.6-6.4,5.5-10.1,7.8c-0.1,0.1-0.3,0.2-0.4,0.3
			c-7.8,4.5-22.2,4.1-30.3,0.2c-7.6-3.7-8.2-5.8-11.2-7.3c-0.3-1.4-0.3-0.5,0.1-2.1c-1.8,0.4-12,4.8-13.9,6
			c-7.7,4.8-7.3,3.9-12.6,7.1c-2,1.2-4,2.9-6.1,4c-6.1,3.2-3.7,1.8-7.9,13.8C1121.1,611.6,1121.9,619.4,1121.8,620.3z"/>
		<path class="st4" d="M1157.9,586.4c-0.6,0.6,5.8,15.9,25.3,13.9C1182.8,600.6,1163.7,597.4,1157.9,586.4z"/>
	</g>
	<g>
		<path class="st0" d="M845,825.4c4,2.4,5.3,3.2,6.5,3.9c0.5,0.3,1,0.6,1.5,1c7.3,4.4,14.2,8.6,18.5,13.2c0.4-0.5,0.8-1,1.2-1.5l0,0
			c4-4.4,11.8-9,19.9-13.7c4.6-2.7,2.8-1.6,0,0l0,0l3.3-1.9c2.7-1.6,5.7-2.5,8.7-2.8c0.5-0.4,1.1-0.7,1.7-1
			c0.7-7,4.9-13.2,11.1-16.4c0.6-2.8,1.7-5.5,3.3-7.8l0,0c2.2-3.2,4.4-5.4,6.6-7.6c1-1,2-2,2.4-3.1c1.1-3-0.8-11.3-3.8-20.7
			c-5.5-17.1-14.3-34.3-18.8-39.9c-2.9-3.6-3.3-4.1-3.6-4.5c-0.8-1.1-1.3-1.7-1.8-2.2c-0.3-0.4-1.6-1.4-4.3-3.9l-1-0.9
			c-7.6-6.8-12.1-5-14.7-3.9c-2.9,1.2-5.3,2.2-8.3,2.7c-2,0.3-4,0.4-5.9,0.2c-5-0.3-8.6-1.2-12.1-2.1c-2.8-0.7-5.2-1.4-14.7,5.1
			c-2.8,1.9-5,4.2-6.9,7.1c-2.4,3.6-4.7,8.4-7.2,14.6c-1.4,3.4-2.7,6.6-4.1,9.8c-3.8,8.8-8,18.5-9.4,25c-2.9,12.8,0.2,16,2.1,17.9
			c2.3,2.4,4.2,4.3,6.1,7.8c1.1,2.1,1.9,4.3,2.2,6.6c4.4,2.6,7.7,6.9,9.2,11.8c1.7,1.3,3.1,2.8,4.3,4.5
			C839.8,823,842.6,823.9,845,825.4L845,825.4L845,825.4z M871.4,878.3c-3,5.1-7.2,9.2-12.7,11.5c-4,2.6-8.8,3.9-13.9,3.2
			c-1.7-0.2-3.4-0.6-4.9-1.2c-0.8,0.3-1.4,0.6-1.7,0.7c-2.3,1.1-4.4,2.2-6.2,3.3c-1,0.7-1.9,1.4-2.6,2.2c-0.8,1-1.9,6.1-3.2,11.9
			c-0.2,0.8-0.1,0.3,0,0l0,0c-0.1,0.3-0.3,1.4-0.9,4l-0.2,1c-0.4,1.8-0.9,3.8-1.3,5.9h96.7c-0.5-2.9-1-5.7-1.5-8.6
			c-2.1-11.5-3.5-12.2-10-15.5c-0.9-0.5-1.9-0.9-6.2-3.2c-1.3-0.7-2.4-1.3-3.3-1.8c-2.8,0.6-5.6,0.6-8.4,0c-0.8-0.1-1.5-0.2-2.3-0.4
			C879.5,889.5,874.3,884.4,871.4,878.3L871.4,878.3z M826.3,910L826.3,910C826.4,909.8,826.3,909.8,826.3,910L826.3,910z
			 M892.7,828.4L892.7,828.4C882.4,834.5,888.6,830.8,892.7,828.4L892.7,828.4z M907.7,867.5C906,868.5,906.4,868.2,907.7,867.5
			L907.7,867.5L907.7,867.5z"/>
		<path class="st1" d="M810.3,764.7c-4.6,0.5-6.3,1.9-7.9,5.8c-1.4,3.5-1.6,8.2-0.9,12.2c1.7,9,4.8,12.6,13.5,13.7
			c0.1,7.6,0.8,16.4,1.7,23.8c1.2,10.4,2,11.9,8.4,16.8c5.3,4.1,30.3,17.9,30.9,19.4c0.1,7-1.9,14.6-8.2,14.7
			c-3.2,7.8,14.6,26.5,24.8,26.8c9.2,0.3,31-27.6,21.2-26.8c-5-0.7-5.4-9.7-5.6-15.2c3.3-3.6,22.9-13.6,30-19c5.7-4.3,6.9-7,8-16.5
			c0.9-7.8,1.2-15.5,1.7-23.3l1-0.5c0.7-0.3,0.7-0.3,1.5-0.5c6.4-1.7,9.1-4.7,10.9-13.4c1-5,0.4-12.7-3.4-16.3
			c-1.9-1.7-3.9-1.5-5.2-2.1C934.1,687.2,805.1,684.5,810.3,764.7z"/>
		<path class="st1" d="M834.4,843.1c9.1,5.5,21.1,12.4,21.6,13.4c0.1,7-1.9,14.6-8.2,14.7c-0.2,0.4-0.3,0.8-0.3,1.3l-0.2-0.3
			c-1.9-2.4-0.9-3.1-3.1-3.7c-1.7-0.5-12.8,4.3-14.7,5.2c-6,2.8-12,6.1-16.2,11.4c-4.3,5.5-5.8,14.4-8,24.2
			c-1.9,8.5-4.7,20.8-5.5,29.4c2.9,1,5.6,1.8,8.1,2.7h121.9c4.3-0.9,8.9-1.8,14-2.7c-0.8-10.2-2.7-20.3-4.5-30.3
			c-4.5-24.5-7.7-23.3-26.9-33.3c-12.9-6.8-13.3-8.4-17-3.7c-0.4-0.3-1-0.4-1.8-0.4c-5-0.7-5.4-9.7-5.6-15.2
			c2.1-2.3,10.6-7.1,18.4-11.7c-0.6,0.6-1.2,1.2-1.8,1.7c1.2,1.5-1.5,0.9,2.5,0.9c3.7-2.1,5.7-3.2,8.9-5.9l8.3,4.5
			c-1.8-4.2-1.9-3.2-2.3-8.5c6.1,0.3,10.9-1,13.8-4.7c-4.7-2.2-8.1-2.6-8.9-7.6c6.6,2.4,7.9,3.5,15.8,0.9c-2-3.6-3.6-2.1-5.5-8.8
			l5.8,0.9c-2.9-2.2-4.1-3.1-5.2-7.4c3.8-5.4,8.2-7,11.3-15.3c7.3-19.5-16.3-68.8-25.8-80.7c-7.2-9-4.7-6.7-13-14.1
			c-21.1-18.8-34.3-7.2-40.3-6.1c-13.4-0.4-17.3-9.6-40.8,6.4c-10.2,6.9-15.7,16.5-21.6,30.9c-4.6,11.4-11.9,26.6-14.5,37.9
			c-6.8,29.5,7.4,35.2,10.1,40.1c-0.7,2.1-1.2,2.9-2.2,4.2c-0.8,0.9-1,0.9-1.7,1.7l-1.9,2.2c4.2-0.6,3.8-1.3,7.4-2.4
			c-0.5,2.8-0.1,2.3-2.1,4.5l-2.8,2.2c-0.1,0.1-0.3,0.2-0.5,0.4l13.6,1.9c-2.5,2.7-4.7,2.8-6.5,6.1c2.3,0.9,3.1,2,5.8,2.8
			c2.5,0.7,4.8,0.5,7.7,1.4c0.3,5.8-0.1,5.5-1.8,10.4c3.3-1.4,4.9-2.6,7.3-3.8c3.1,2.9,5.3,3.2,9.3,5.6c3.6,0.9,1.2,0.8,1.8-1.5
			C835.8,844.6,835.1,843.9,834.4,843.1z"/>
		<path class="st2" d="M895,872.2c-4.9,7.9-14.6,15.6-24.2,15.2c-10.6-0.4-16.5-7.1-23.7-15.1c-1.9-2.4-0.9-3.1-3.1-3.7
			c-1.7-0.5-12.8,4.3-14.7,5.2c-6,2.8-12,6.1-16.2,11.4c-4.3,5.5-5.8,14.4-8,24.2c-1.9,8.5-4.7,20.8-5.5,29.4c2.9,1,5.6,1.8,8.1,2.7
			h121.9c4.3-0.9,8.9-1.8,14-2.7c-0.8-10.2-2.7-20.3-4.5-30.3c-4.5-24.5-7.7-23.3-26.9-33.3C899,868.2,899.2,866.7,895,872.2z"/>
		<path class="st4" d="M841.4,873.5c-0.6,0.5,5.1,14.1,22.4,12.3C863.5,886.1,846.5,883.2,841.4,873.5z"/>
		<path class="st8" d="M871.1,743.3c11.3,0.1,23.7-10.7,34.9-4.9c11.6,6.1,10.5,24.9,10.4,34.7c0,7.3,2.2,11.3,1.7,18.6
			c-0.5,7-2.4,11.8-2.4,20.3c0,14.1-3.3,27.3-11,33.9c1.2,1.5-1.5,0.9,2.5,0.9c3.7-2.1,5.7-3.2,8.9-5.9l8.3,4.5
			c-1.8-4.2-1.9-3.2-2.3-8.5c6.1,0.3,10.9-1,13.8-4.7c-4.7-2.2-8.1-2.6-8.9-7.6c6.6,2.4,7.9,3.5,15.8,0.9c-2-3.6-3.6-2.1-5.5-8.8
			l5.8,0.9c-2.9-2.2-4.1-3.1-5.2-7.4c3.8-5.4,8.2-7,11.3-15.3c7.3-19.5-16.3-68.8-25.8-80.7c-7.2-9-4.7-6.7-13-14.1
			c-21.1-18.8-34.3-7.2-40.3-6.1c-13.4-0.4-17.3-9.6-40.8,6.4c-10.2,6.9-15.7,16.5-21.6,30.9c-4.6,11.4-11.9,26.6-14.5,37.9
			c-6.8,29.5,7.4,35.2,10.1,40.1c-0.7,2.1-1.2,2.9-2.2,4.2c-0.8,0.9-1,0.9-1.7,1.7l-1.9,2.2c4.2-0.6,3.8-1.3,7.4-2.4
			c-0.5,2.8-0.1,2.3-2.1,4.5l-2.8,2.2c-0.1,0.1-0.3,0.2-0.5,0.4l13.6,1.9c-2.5,2.7-4.7,2.8-6.5,6.1c2.3,0.9,3.1,2,5.8,2.8
			c2.5,0.7,4.8,0.5,7.7,1.4c0.3,5.8-0.1,5.5-1.8,10.4c3.3-1.4,4.9-2.6,7.3-3.8c3.1,2.9,5.3,3.2,9.3,5.6c3.6,0.9,1.2,0.8,1.8-1.5
			c-8.8-5.8-8.8-26.7-9.5-33.8c-1.8-17.8-7.4-14.7-2.5-36.5c2.9-12.9-0.2-28.2,9-35.1C844.8,731.5,857.7,743.4,871.1,743.3z"/>
		<path class="st4" d="M819.4,727.6c-1.6-1.3,5.2-33.7,46.1-27.5C864.7,699.6,826.6,704.5,819.4,727.6z"/>
		<path class="st4" d="M796.8,792.4c-0.6,0.5,5.1,14.1,22.4,12.3C818.9,804.9,801.9,802.1,796.8,792.4z"/>
	</g>
	<g>
		<path class="st8" d="M892.5,238.2c-8.4,9.3-16.8,10.6-21,12.9l4.2,0.9c14.7-0.9,26.1-6.9,32-12.8c5.1,1.3,5.9,1.6,11.9,1.9
			c-1.7-5.1-1.6-5.7-0.6-11.5c5.9,0.7,5.8,1.4,13,1.2c-1.1-2-2.7-3.2-2.9-5.8c-0.1-2,0.5-6.3,1.1-8.2c4.3-15,10.3-12.7,9.1-44.1
			c-0.2-5.6-1.1-12.4-3.1-19.1C769,145.1,964.8,158.6,892.5,238.2z"/>
		<path class="st8" d="M817.3,202c1.1,2.8,2.2,5.7,3.3,10.3c0.4,1.9,1,6.2,0.9,8.2c-0.1,2.6-1.4,3.8-2.3,5.8
			c5.7,0.3,5.6-0.5,10.2-1.2c0.4,2.7,0.6,4.3,0.6,5.7c-1.5,0.9-2.7,1.6-3.2,1.9c-5.6,3.6-11.1,7.8-15,14.7c-4,7-5.3,18.4-7.4,31.1
			c-1.5,9.4-3.7,22.5-4.7,33h132.9c-0.9-11.5-2.4-22.9-3.8-34.2c-3.5-26.2-6.1-29.5-17.2-37.3c2.3,0.6,4,0.8,8.2,1
			c-1.7-5.1-1.6-5.7-0.6-11.5c5.9,0.7,5.8,1.4,13,1.2c-1.1-2-2.7-3.2-2.9-5.8c-0.1-2,0.5-6.3,1.1-8.2c3.3-11.4,7.6-12.8,8.9-26.7
			c0.2,0,0.4,0,0.7-0.1c-0.2-0.4-0.4-0.7-0.6-1c0.3-4.2,0.4-9.5,0.1-16.4c0-1.2-0.1-2.5-0.2-3.8c2.4-8.4,5.1-12,2.7-37.3
			c-1.2-13-5.6-33.2-17.7-40.2c-7.1-4.1-1.4,2.4-9.7-6.7c-4.3-4.7-7.8-7.7-13.7-11.3c-6.7-4.1-15.5-7.4-25.2-8.3
			c-16.3-1.5-37.7,2.3-52,10.5c-0.8,0.5-0.7,0.4-1.4,0.9l-1.3,1.3c3.1-0.8,8-3.2,11-1.8c-10.2,6.6-13.7,8-20.9,19.5
			c-11,17.7-15.1,45.5-12.9,67c1,9.3,6.5,19.8-0.7,28.9c-1,1.2-1.5,1.2-2.4,2.4c5.9,2,9-0.2,13.4-2c1.1,6.8-1.6,7.7-1.5,11.1
			c5.7,1,5.7-0.1,10.2-1.5C817.1,201.6,817.2,201.8,817.3,202z"/>
		<path class="st0" d="M835.1,195.1L835.1,195.1c1.3,3.5,2.7,7.1,4.1,13c0.1,0.2,0.1,0.5,0.2,0.7c4.7,2.9,8.1,7.7,9,13.5
			c0.1,0.6,0.1,1.1,0.2,1.7c0.4,2.8,0.6,4.6,0.5,7.2c-0.1,7-3.9,13-9.5,16.3l0,0c-0.3,0.1-0.4,0.2-1.5,0.9c-1.1,0.7-0.4,0.2-0.8,0.5
			c-2,1.3-3.9,2.6-5.6,4.2c-1.3,1.2-2.4,2.4-3.2,3.9c-1.8,3.1-3,10.9-4.4,19.7c-0.4,2.8-0.7,4.4-0.8,5l-0.2,1.2
			c-0.5,2.9-1,6.2-1.5,9.6h89.8c-0.7-5.6-1.1-9.1-1.6-12.6c-1.4-11-2.5-16.7-3.9-19.6c-0.5-1-2.3-2.3-5.4-4.5
			c-8.7-6.1-10.7-18-4.6-26.7c1.3-1.9,3-3.5,4.8-4.7c1.6-5.7,5.8-10.2,11-12.4c0-0.2,0.1-0.3,0.1-0.5c0.2-0.6,0.4-1.3,0.6-1.9
			c1.6-5.3,3.2-8.5,4.7-11.6c1.3-2.6,2.4-4.9,2.9-9.5c0-0.4,0-0.7,0.1-1.1l0,0c0.2-2.2,0.3-4.2,0.3-5.8c0-2.2,0-5-0.2-8.3
			c0-0.1,0-0.4-0.1-1.4l0,0c0-0.3,0-0.2-0.1-1.5c-0.2-2.6,0.1-5.2,0.9-7.6c0.4-1.2,0.6-2.1,0.9-2.9c1.5-4.7,2.7-8.6,1-26.5
			c-0.6-5.9-1.9-13.6-4.7-19.9c-0.7-1.6-1.4-2.9-2-3.9c-4.4-0.2-7.5-2.9-15.8-12c-1.4-1.5-2.7-2.8-4.4-4.2c-1.5-1.3-3.2-2.4-5.2-3.6
			c-2.3-1.4-5-2.7-8-3.6c-2.9-1-6-1.6-9-1.9c-6.6-0.6-14.3-0.1-21.9,1.4c-1.3,0.3-2.7,0.6-4,0.9c-1.5,2.3-3.4,4.2-5.6,5.6l0,0
			c-3.8,2.5-2.5,1.6-3,2c-5.4,3.4-7.8,4.9-11.9,11.6c-4,6.4-6.8,14.9-8.6,24c-2,10.5-2.5,21.5-1.6,30.9c0.2,1.5,0.6,3.4,1,5.3
			c0.8,3.6,1.6,7.2,2,10.9c2.5,2,4.6,4.6,5.9,7.8c3.5,1.9,6.4,4.8,8.2,8.6c-0.2-0.4-0.5-0.9-0.1-0.2c0,0,0,0,0,0h0l0.2,0.3l0,0
			c0.1,0.1,0.1,0.2,0.2,0.4C834.7,194.1,834.9,194.6,835.1,195.1L835.1,195.1L835.1,195.1z M834.2,193.1L834.2,193.1L834.2,193.1
			L834.2,193.1L834.2,193.1z M834.3,193.1C834.4,193.5,834.4,193.3,834.3,193.1L834.3,193.1L834.3,193.1z M834.1,192.9L834.1,192.9
			L834.1,192.9L834.1,192.9z"/>
		<path class="st8" d="M875.2,236.5c-8.4,9.3-16.8,10.6-21,12.9l4.2,0.9c14.7-0.9,26.1-6.9,32-12.9c5.1,1.3,5.9,1.6,11.9,1.9
			c-1.7-5.1-1.6-5.7-0.6-11.5c5.9,0.7,5.8,1.4,13,1.2c-1.1-2-2.7-3.2-2.9-5.8c-0.1-2,0.5-6.3,1.1-8.2c4.3-15,10.3-12.7,9.1-44.1
			c-0.2-5.6-1.1-12.4-3.1-19.1C751.6,143.4,947.5,156.9,875.2,236.5z"/>
		<path class="st8" d="M858.2,239.6c-8.4,9.3-16.8,10.6-21,12.9l4.2,0.9c14.7-0.9,26.1-6.9,32-12.9c5.1,1.3,5.9,1.6,11.9,1.9
			c-1.7-5.1-1.6-5.7-0.6-11.5c5.9,0.7,5.8,1.4,13,1.2c-1.1-2-2.7-3.2-2.9-5.8c-0.1-2,0.5-6.3,1.1-8.2c4.3-15,10.3-12.7,9.1-44.1
			c-0.2-5.6-1.1-12.4-3.1-19.1C734.6,146.5,930.5,160,858.2,239.6z"/>
		<path class="st8" d="M869.3,239.6c8.4,9.3,16.8,10.6,21,12.9l-4.2,0.9c-14.7-0.9-26.1-6.9-32-12.9c-5.1,1.3-5.9,1.6-11.9,1.9
			c1.7-5.1,1.6-5.7,0.6-11.5c-5.9,0.7-5.8,1.4-13,1.2c1.1-2,2.7-3.2,2.9-5.8c0.1-2-0.5-6.3-1.1-8.2c-4.3-15-10.3-12.7-9.1-44.1
			c0.2-5.6,1.1-12.4,3.1-19.1C992.8,146.5,797,160,869.3,239.6z"/>
		<path class="st8" d="M844.9,238.2c-6.6,9.3-13.2,10.6-16.6,12.9l3.3,0.9c11.6-0.9,20.5-6.9,25.2-12.8c4,1.3,4.6,1.6,9.4,1.9
			c-1.4-5.1-1.3-5.7-0.5-11.5c4.6,0.7,4.5,1.4,10.2,1.2c-0.9-2-2.1-3.2-2.3-5.8c-0.1-2,0.4-6.3,0.9-8.2c3.4-15,8.2-12.7,7.2-44.1
			c-0.2-5.6-0.8-12.4-2.4-19.1C747.5,145.1,902,158.6,844.9,238.2z"/>
		<path class="st8" d="M850.3,233.8c6.6,9.3,13.2,10.6,16.6,12.9l-3.3,0.9c-11.6-0.9-20.5-6.9-25.2-12.9c-4,1.3-4.6,1.6-9.4,1.9
			c1.4-5.1,1.3-5.7,0.5-11.5c-4.6,0.7-4.5,1.4-10.2,1.2c0.9-2,2.1-3.2,2.3-5.8c0.1-2-0.4-6.3-0.9-8.2c-3.4-15-8.2-12.7-7.2-44.1
			c0.2-5.6,0.8-12.4,2.4-19.1C947.7,140.6,793.2,154.1,850.3,233.8z"/>
		<path class="st1" d="M808.8,130.9c-4.3,0.5-5.9,1.8-7.3,5.4c-1.3,3.3-1.5,7.6-0.8,11.3c1.6,8.4,4.4,11.6,12.5,12.7
			c0.1,7.1,0.8,15.2,1.6,22.1c1.1,9.6,1.9,11.1,7.8,15.6c4.9,3.8,28.1,16.6,28.7,18c0.1,6.5-11.6,20-17.5,20.1
			c6.4,4.8,22.4,25,31.8,25.3c8.5,0.2,26.4-17.7,30.8-22.5c-4.7-0.7-15.1-18.3-15.3-23.4c3.1-3.4,21.2-12.6,27.8-17.6
			c5.2-4,6.4-6.5,7.5-15.3c0.9-7.2,1.1-14.4,1.6-21.7l0.9-0.5c0.7-0.2,0.7-0.2,1.4-0.4c6-1.5,8.5-4.3,10.1-12.4
			c0.9-4.6,0.4-11.8-3.2-15.1c-1.7-1.6-3.6-1.4-4.9-2C923.6,59,804,56.5,808.8,130.9z"/>
		<path class="st6" d="M840.7,210l1.8-0.4c-10-3.6-15.1-18.9-17.3-31.9c-1-5.6-2.3-17.4-1.7-22.9c0.5-3.9,3-5,6.7-5.9
			c15.2-3.6,44.3,0,67.3-18.9c4.6-3.8,5.9-4.7,9.5-9.2c0.6-0.7,0.7-0.9,1.2-1.6l1.9-1.9c-2.4,31.2,11.2,62.6-1,82.2
			c-6,9.7-12.5,11.4-15.7,14l3.4,0.7c11.5-1.6,20.1-8.2,24.4-14.4c4.1,1,4.7,1.3,9.5,1.3c-1.7-5.1-1.6-5.6-1.2-11.4
			c4.7,0.4,4.6,1.1,10.3,0.5c-1-2-2.3-3.1-2.6-5.7c-0.2-2,0-6.3,0.3-8.2c2.4-15.2,7.3-13.2,4.3-44.5c-1.2-13-5.6-33.2-17.7-40.2
			c-7.1-4.1-1.4,2.4-9.7-6.7c-4.3-4.7-7.8-7.7-13.7-11.3c-6.7-4.1-15.5-7.4-25.2-8.3c-16.3-1.5-37.7,2.3-52,10.5
			c-0.8,0.5-0.7,0.4-1.4,0.9l-1.3,1.3c3.1-0.8,8-3.2,11-1.8c-10.2,6.6-13.7,8-20.9,19.5c-11,17.7-15.1,45.5-12.9,67
			c1,9.3,6.5,19.8-0.7,28.9c-1,1.2-1.5,1.2-2.4,2.4c5.9,2,9-0.2,13.4-2c1.1,6.8-1.6,7.7-1.5,11.1c5.7,1,5.7-0.1,10.2-1.5
			C820.2,208.2,831.2,210,840.7,210z"/>
		<path class="st2" d="M887.5,230.8c-4.5,10.2-13.5,20-22.4,19.5c-9.8-0.6-15.3-9.1-21.9-19.4c-1.8-3.1-0.9-4-2.8-4.7
			c-1.6-0.6-11.9,5.6-13.6,6.7c-5.6,3.6-11.1,7.8-15,14.7c-4,7-5.3,18.4-7.4,31.1c-1.5,9.4-3.7,22.5-4.7,33h132.9
			c-0.9-11.5-2.4-22.9-3.8-34.2c-4.1-31.4-7.1-29.8-24.9-42.7C891.2,225.7,891.4,223.7,887.5,230.8z"/>
		<path class="st4" d="M842.1,242.9c-0.5,0.5,4.7,13,20.8,11.4C862.6,254.5,846.8,251.9,842.1,242.9z"/>
	</g>
</g>
</svg>
